<?xml version="1.0" encoding="utf-8"?>
<!-- Generator: Adobe Illustrator 24.3.0, SVG Export Plug-In . SVG Version: 6.00 Build 0)  -->
<svg version="1.1" id="Layer_1" xmlns="http://www.w3.org/2000/svg" xmlns:xlink="http://www.w3.org/1999/xlink" x="0px" y="0px"
	 viewBox="0 0 365 383.5" style="enable-background:new 0 0 365 383.5;" xml:space="preserve">
<style type="text/css">
	.st0{fill:#FFFFFF;}
</style>
<g>
	<path d="M109.1,28.4c3,2.9,5.9,6,9.1,8.7c17.4,14.6,36.9,25,59.6,28.7c8,1.3,16.1,1.9,24,3.6c11.4,2.5,21.5,7.9,30.3,15.7
		c-5.8,7.5-11.5,15-17.1,22.1c-8.3-2.4-16.4-5.2-24.8-7.2c-17.4-4.1-35.2-4.8-53-4.8c-4.5,0-9,0-13.4-0.4c-1.4-0.1-3.2-1.1-4.1-2.2
		c-7.1-9.6-10.5-20.7-11.3-32.4c-0.7-10.6-0.1-21.2-0.1-31.9C108.7,28.4,108.9,28.4,109.1,28.4z"/>
	<path d="M27.1,64.6c6.3,8,13.5,13.9,21.6,18.8C64.1,92.5,81,97.8,98.7,99.8c14.9,1.7,29.9,2.2,44.9,2.7c21.3,0.6,42.3,2.2,62.5,9.7
		c8,3,15.6,6.9,22.1,12.6c13.6,11.9,17.3,27.8,10.3,45.9c-2.2,5.6-5.4,10.8-8.3,16.2c-1.2,2.3-2.2,4.3,0.3,6.2
		c1.9,1.5,4.1,0.6,5.9-2.3c6-9.2,10.6-18.9,12.2-29.9c2.6-18.5-4.3-32.9-18.8-44c-2.5-1.9-5.2-3.6-8-5.5
		c11.5-16.9,24.6-32.3,42.5-42.7c9.6-5.6,19.8-8.9,31.1-6.7c16.3,3.2,23.5,14.9,19.4,31.5c-2.6,10.3-7.5,19.3-15.1,26.6
		c-11.8,11.4-16.7,25.5-17.2,41.3c-0.2,6.7,0.3,13.4,0.7,20.1c2.4,40-18.3,70.8-56.4,83.5c-18.4,6.1-37.3,8.3-56.7,7.3
		c-0.6,0-1.3-0.1-1.9-0.1c-2.2,0.1-4,1.4-3.6,3.5c0.2,1.4,1.9,3.3,3.2,3.6c3,0.7,6.1,0.4,9.8,0.6c-0.8,1.1-1.3,2.1-2,3
		c-12.1,15.8-27,28.6-43.3,39.8c-19.1,13.1-39.6,23.6-61.2,32.1c-2,0.8-3.2,0.7-4.6-1c-5.2-6.6-10.6-13.1-15.9-19.6
		c-0.5-0.6-0.9-1.4-1.2-2c8.4-1.5,16.6-2.8,24.8-4.5c4.2-0.8,8.2-2.3,12.3-3.4c2.5-0.7,4-2.4,3-5c-0.9-2.5-2.9-2.7-5.3-1.9
		c-11.6,3.9-23.5,6-35.6,7.2c-3,0.3-4.9-0.3-6.2-3.3c-2.4-5.4-5.2-10.7-8-16.4c6.8-0.7,13-1.1,19.2-2c7.3-1,14.5-2.5,21.7-3.8
		c2.5-0.4,4.3-1.6,4-4.4c-0.3-2.4-2.3-3.2-5.5-2.7c-13.1,1.8-26.1,3.5-39.2,5.4c-2,0.3-2.9-0.4-3.3-2.3c-1.4-6.4-2.9-12.8-4.5-19.8
		c2.3,0,3.7,0,5.2,0c32.6-0.4,64-6.1,92.7-22.3c5.8-3.3,11.2-7.3,16.6-11.3c1.8-1.3,3.3-1.7,5.5-1.5c9.6,1,19.3,1.9,28.9,2.8
		c2.2,0.2,4.1-0.3,4.6-2.9c0.5-2.5-1.2-4-4.5-4.4c-11.5-1.2-23.1-2.1-34.6-3.9c-19.6-3.2-38.5-9-56-18.8c-0.7-0.4-1.5-0.8-2.2-1.3
		c-0.2-0.1-0.2-0.3-0.4-0.6c6.3,0.3,12.7,1,19,0.8c9.7-0.4,19.3-1.4,28.9-2.4c3.2-0.3,4.8-2.3,4.2-4.5c-0.8-2.9-2.9-3.1-5.5-2.7
		c-19.8,3.4-39.7,2.7-59.4-0.6c-1-0.2-2.1-0.6-2.9-1.2c-11.1-9-20.1-19.9-27-32.5c-0.1-0.3-0.2-0.6-0.4-1.2
		c5.1,1.3,9.9,2.7,14.8,3.8c23.7,5.6,47.6,6.8,71.7,4.2c3.3-0.3,4.8-1.8,4.5-4.2c-0.2-2.5-2.2-3.5-5.6-3.1
		c-29.9,3.2-59.1,0.5-87.6-9.3c-2-0.7-3.1-1.7-3.9-3.7c-4.2-11.1-7-22.5-8.4-34.8c3.3,1.4,6.2,2.6,9.1,3.8
		c27,11.7,55.4,15.6,84.6,14.1c2.5-0.1,4.8-0.7,5-3.7c0.2-2.4-1.8-3.8-5.3-3.6c-17.5,0.8-34.9,0.1-52.1-3.8
		c-14.1-3.2-27.4-8.5-40.5-14.5c-0.8-0.4-1.7-1.4-1.7-2.2C23.3,94.7,24.2,80,27.1,64.6z M296.7,81c-2.7,0-4.9,2.1-5,4.8
		c-0.1,2.8,2.1,5.2,4.9,5.2c2.7,0,4.9-2.1,5-4.8C301.7,83.4,299.5,81.1,296.7,81z"/>
	<path d="M319.3,103.5c1.3-4.8,2.5-9.5,3.9-14.7c6.9,2.6,12.6,6.8,17.9,12.5C333.6,102.1,326.5,102.8,319.3,103.5z"/>
	<path class="st0" d="M296.7,81c2.8,0,5,2.4,4.9,5.2c-0.1,2.7-2.3,4.8-5,4.8c-2.8,0-5-2.3-4.9-5.2C291.8,83.1,294,81,296.7,81z"/>
</g>
</svg>
