<?xml version="1.0" encoding="utf-8"?>
<!-- Generator: Adobe Illustrator 24.3.0, SVG Export Plug-In . SVG Version: 6.00 Build 0)  -->
<svg version="1.1" id="Layer_1" xmlns="http://www.w3.org/2000/svg" xmlns:xlink="http://www.w3.org/1999/xlink" x="0px" y="0px"
	 viewBox="0 0 427.7 416.3" style="enable-background:new 0 0 427.7 416.3;" xml:space="preserve">
<g>
	<path d="M285.7,388.3c-11,0.3-23.7-4.4-36.2-9.5C146,336.9,75.5,263.4,38.1,158.3c-7.9-22.2-5.5-43.9,6.5-64.2
		c9.3-15.7,19-31.1,28.9-46.4c14.8-22.8,46.2-26.4,65.7-7.5C151,51.5,162.5,63,173.8,74.7c20,20.7,20,53.2,0.1,74.3
		c-5.1,5.4-10.3,10.5-15.6,15.7c-1.6,1.5-2,2.8-1.2,4.9c17.3,46.3,49,78.1,95.3,95.3c2,0.8,3.4,0.5,4.9-1.1
		c5-5.2,10.2-10.4,15.4-15.4c21.2-20.4,54.1-20.3,75.1,0.3c11.2,10.9,22.2,22,33.2,33.1c20,20.3,16.6,51.9-7.4,67.3
		c-15,9.6-30.2,19-45.5,28.4C316,384.8,302.7,388.3,285.7,388.3z M288.8,364.2c10.1-0.1,19.5-2.8,28-8.1
		c14.3-8.9,28.6-17.8,42.9-26.8c12-7.6,13.5-21.1,3.6-31.1c-10.3-10.4-20.6-20.7-31-31c-13-12.9-31.5-12.9-44.5,0
		c-6.6,6.5-13.1,13-19.6,19.7c-4.2,4.3-8.9,5.6-14.7,3.7c-61.7-19.8-102.4-60.5-122.1-122.3c-1.8-5.8-0.5-10.4,3.8-14.6
		c6.7-6.5,13.3-13.2,19.9-19.9c12.8-13,12.9-30.8,0.1-43.8c-10.5-10.7-21.2-21.3-31.8-31.8c-9.5-9.4-23.2-7.8-30.4,3.5
		c-9.1,14.5-18.2,29-27.2,43.6c-8.8,14.4-10.7,29.8-4.9,45.7c36.3,101,104.6,170.4,205,208.3C273.3,362.1,280.8,364.3,288.8,364.2z"
		/>
	<path d="M393.8,180.2c0,0.9,0,1.7,0,2.6c0,7.6-4.8,13.1-11.8,13.3c-6.9,0.1-12.1-5.2-12.2-12.8c-0.2-12.2-1.5-24.2-5.3-35.8
		c-16.5-51-50.9-82.3-103.5-93.2c-7.2-1.5-14.6-1.8-21.9-2.2c-8-0.4-13.4-5.1-13.3-12.2c0-7.2,5.6-12,13.8-11.9
		c75.4,0.9,139.7,56.1,152,130.5c1.2,7.1,1.7,14.4,2.5,21.6C394.1,180.2,393.9,180.2,393.8,180.2z"/>
	<path d="M333.9,181.5c-0.1,1.7-0.1,3.5-0.4,5.2c-1.3,5.9-6.8,9.9-12.7,9.4c-6.2-0.5-10.8-5.6-10.9-12.2
		c-0.2-14.8-4.2-28.4-12.7-40.4c-14.2-20.1-33.7-30.6-58.4-31.4c-7.7-0.2-13-5.1-13-12.1c0-7.1,5.5-12.2,13.4-11.9
		c5.3,0.2,10.7,0.7,16,1.6C299.1,97.2,333,137,333.9,181.5z"/>
	<path d="M239.1,148.2c18.6,0.5,34.2,16.1,34.7,34.7c0.2,7.4-4.6,12.9-11.3,13.3c-6.8,0.3-12.1-4.7-12.6-12c-0.5-7-4.9-11.5-12-12
		c-7.3-0.5-12.4-5.8-12-12.6C226.2,152.7,231.7,148,239.1,148.2z"/>
</g>
</svg>
