<?xml version="1.0" encoding="utf-8"?>
<!-- Generator: Adobe Illustrator 24.3.0, SVG Export Plug-In . SVG Version: 6.00 Build 0)  -->
<svg version="1.1" id="Layer_1" xmlns="http://www.w3.org/2000/svg" xmlns:xlink="http://www.w3.org/1999/xlink" x="0px" y="0px"
	 viewBox="0 0 427.7 416.3" style="enable-background:new 0 0 427.7 416.3;" xml:space="preserve">
<g>
	<path d="M405.5,109.3c0,65.9,0,131.7,0,197.6c-0.2,0.6-0.5,1.1-0.6,1.7c-4.4,25.3-24.7,42.9-50.4,43c-93.8,0.1-187.6,0.1-281.4,0
		c-28.7,0-50.8-22.5-50.9-51.2c0-61.5,0-123,0-184.5c0-3.7,0.3-7.5,1.1-11.1C28.7,80.7,49,64.6,74.2,64.6c53.1,0,106.3,0,159.4,0
		c40.2,0,80.3-0.1,120.5,0c23.6,0,43.3,14.9,49.5,37.1C404.3,104.3,404.9,106.8,405.5,109.3z M50.9,104.8c1.1,0.9,2.1,1.6,3,2.4
		c47.5,44.7,95.1,89.4,142.6,134.1c10.5,9.8,24.4,9.7,34.9-0.2c47.6-44.8,95.2-89.6,142.9-134.3c2.2-2.1,2-3.4,0.4-5.6
		c-5.5-7.4-13-10.4-22-10.4c-92.6,0-185.1,0-277.7,0c-1.2,0-2.5,0-3.7,0.1C62.2,91.8,55.5,96.2,50.9,104.8z M147.9,231.6
		c-31,29.1-61.5,57.9-92.1,86.7c5.7,5.6,12.3,7.2,19.6,7.2c92.4,0,184.8,0,277.2,0c2.2,0,4.5-0.1,6.7-0.5c4.9-0.8,9.1-2.9,12.7-6.7
		c-30.8-29-61.4-57.7-92-86.5c-1.3,1.1-2.2,1.9-3.1,2.8c-9.9,9.3-19.5,19-29.8,27.8c-16,13.5-34.2,16.4-53.4,8
		c-6.4-2.8-12.2-7.6-17.6-12.3C166.5,249.5,157.4,240.6,147.9,231.6z M48.8,138.4c0,50.4,0,100.1,0,150.4
		c26.9-25.3,53.3-50.1,80-75.2C102.1,188.5,75.6,163.7,48.8,138.4z M379.1,288.9c0-50.4,0-100.1,0-150.6
		c-27,25.4-53.4,50.2-80.1,75.3C325.7,238.7,352.1,263.5,379.1,288.9z"/>
</g>
</svg>
