<?xml version="1.0" encoding="utf-8"?>
<!-- Generator: Adobe Illustrator 24.3.0, SVG Export Plug-In . SVG Version: 6.00 Build 0)  -->
<svg version="1.1" id="Layer_1" xmlns="http://www.w3.org/2000/svg" xmlns:xlink="http://www.w3.org/1999/xlink" x="0px" y="0px"
	 viewBox="0 0 427.7 416.3" style="enable-background:new 0 0 427.7 416.3;" xml:space="preserve">
<g>
	<path d="M221.1,15.3c3.8,0.5,7.7,0.9,11.5,1.5c46.5,7.5,81.2,31.9,102,73.9c21.9,44.2,19.5,88.4-5.5,130.8
		c-33.9,57.4-68.4,114.5-102.7,171.7c-6.1,10.1-15.6,10.3-21.8,0.3c-35.2-56.7-70.3-113.4-105.5-170c-16.6-26.7-23.7-55.7-20.2-87
		c3.7-33.4,18-61.8,42.6-84.8c18.1-16.9,39.3-28,63.5-33.3c6.9-1.5,14.1-2.1,21.1-3.2C211.1,15.3,216.1,15.3,221.1,15.3z
		 M215.3,367.8c1-1.6,1.8-2.9,2.6-4.2c30.4-50.8,60.8-101.5,91.2-152.3c19.6-32.7,23.2-66.9,9.2-102.4
		c-11.7-29.5-32.7-50.6-62.1-62.6c-31.8-12.9-63.6-11.6-94.2,4.1c-28.3,14.5-47.4,37.3-56.5,67.7c-9.9,32.9-5.3,64.2,12.9,93.5
		c31.6,50.9,63.2,101.9,94.8,152.8C213.8,365.5,214.5,366.5,215.3,367.8z"/>
	<path d="M209.3,218.3c-37.4,0.1-67.8-30.3-67.9-67.7c-0.1-37.2,30.4-67.8,67.7-67.9c37.3-0.1,67.8,30.4,67.9,67.7
		C277,187.8,246.7,218.2,209.3,218.3z M209,195.8c25,0.1,45.3-20,45.4-45c0.1-25-20-45.4-44.9-45.6c-25.1-0.2-45.6,20.1-45.6,45.2
		C163.9,175.5,184,195.7,209,195.8z"/>
</g>
</svg>
