<?xml version="1.0" encoding="utf-8"?>
<!-- Generator: Adobe Illustrator 24.3.0, SVG Export Plug-In . SVG Version: 6.00 Build 0)  -->
<svg version="1.1" id="Layer_1" xmlns="http://www.w3.org/2000/svg" xmlns:xlink="http://www.w3.org/1999/xlink" x="0px" y="0px"
	 viewBox="0 0 365 383.5" style="enable-background:new 0 0 365 383.5;" xml:space="preserve">
<g>
	<path d="M296.6,229.8c5.5,0,10.6,0,15.7,0c4.4,0,8.8-0.1,13.1,0c11.2,0.2,18.5,7.4,18.6,18.7c0.1,20.3,0,40.5,0,60.8
		c0,6.1,0.1,12.3-0.2,18.4c-0.7,14.7-12.4,26.8-27,27.7c-7.8,0.5-15.7,0.2-23.6,0.2c-80.3,0-160.5,0-240.8,0
		c-14.6,0-25.5-6.9-30-19.3c-1.2-3.5-2-7.3-2-11c-0.1-91.6-0.1-183.3-0.1-274.9C20.4,39.7,28.2,32,39,32c79.6,0,159.3,0,238.9,0
		c11.4,0,18.7,7.6,18.7,19.3c0,57.8,0,115.5,0,173.3C296.6,226.1,296.6,227.6,296.6,229.8z M290.4,343.6c-7.2-9.7-5.8-20.2-5.8-30.5
		c0-86.9,0-173.8,0-260.7c0-6.7-1.7-8.4-8.4-8.4c-78.4,0-156.8,0-235.2,0c-6.9,0-8.6,1.7-8.6,8.6c0,90.3,0,180.5,0,270.8
		c0,13.1,7,20.2,20.1,20.2c77.6,0,155.3,0,232.9,0C286.8,343.6,288.1,343.6,290.4,343.6z M296.8,241.9c-0.1,1.2-0.1,1.8-0.1,2.4
		c0,27.1,0,54.2,0,81.4c0,8.3,4.7,14.7,12.1,17.1c7.2,2.3,15.2-0.2,19.8-6.3c2.9-3.8,3.6-8.1,3.6-12.7c0-24.5,0-49,0-73.5
		c0-1,0-2-0.1-3c-0.4-3.1-2.1-5.2-5.3-5.3C316.8,241.8,307,241.9,296.8,241.9z"/>
	<path d="M158.3,80c25.1,0,50.3,0.4,75.4-0.2c13.1-0.3,21,9.3,20.7,21.4c-0.6,28-0.2,56-0.2,84c0,5.6-1,10.7-4.9,14.9
		c-3.7,3.9-8.4,5.8-13.8,5.8c-51.5,0-103,0.1-154.5,0c-11.3,0-18.6-7.7-18.6-19.1c0-29.4,0-58.7,0-88.1C62.4,87.6,70,80,81,80
		C106.8,79.9,132.5,80,158.3,80z M242,108.8c-1.6,0.9-2.8,1.5-3.9,2.2c-24.9,14.9-49.7,29.8-74.5,44.8c-3.8,2.3-6.9,2.3-10.7,0
		c-24.7-15-49.4-29.8-74.2-44.6c-1.2-0.7-2.5-1.4-4.4-2.5c0,1.8,0,3,0,4.2c0,24.1,0,48.3,0,72.4c0,6.9,1.7,8.7,8.6,8.7
		c50.1,0,100.3,0,150.4,0c7.1,0,8.8-1.8,8.8-8.9c0-24,0-48,0-72C242.2,111.7,242.1,110.5,242,108.8z M241.1,95c-1.7-3.3-4.5-3-7.3-3
		c-50.3,0-100.7,0-151,0c-0.9,0-1.8-0.2-2.6,0.1c-1.7,0.6-3.3,1.4-5.7,2.4c2,1.3,3,2,4.1,2.6c25.5,15.3,51,30.5,76.4,45.9
		c2.5,1.5,4.2,1.5,6.7,0c25.4-15.4,50.9-30.6,76.4-45.9C239.1,96.4,240.1,95.7,241.1,95z"/>
	<path d="M158.3,247.8c30.9,0,61.7,0,92.6,0c1.5,0,3-0.1,4.5,0.2c2.8,0.5,4.4,2.3,4.7,5.1c0.3,2.9-0.9,5.2-3.8,6.1
		c-1.6,0.5-3.4,0.6-5.2,0.6c-61.9,0-123.7,0-185.6,0c-6.2,0-9-1.9-9.1-6c-0.1-4.1,2.7-6,8.9-6C96.3,247.8,127.3,247.8,158.3,247.8z"
		/>
	<path d="M158.1,289.7c-30.9,0-61.7,0-92.6,0c-6.2,0-9-1.9-9.1-5.9c-0.1-4.1,2.8-6.1,8.9-6.1c62,0,124,0,185.9,0c0.4,0,0.7,0,1.1,0
		c5.1,0.1,7.8,2.2,7.8,6.1c-0.1,3.8-2.8,5.9-7.9,5.9C220.8,289.7,189.4,289.7,158.1,289.7z"/>
</g>
</svg>
