<?xml version="1.0" encoding="utf-8"?>
<!-- Generator: Adobe Illustrator 24.3.0, SVG Export Plug-In . SVG Version: 6.00 Build 0)  -->
<svg version="1.1" id="Layer_1" xmlns="http://www.w3.org/2000/svg" xmlns:xlink="http://www.w3.org/1999/xlink" x="0px" y="0px"
	 viewBox="0 0 427.7 416.3" style="enable-background:new 0 0 427.7 416.3;" xml:space="preserve">
<style type="text/css">
	.st0{fill:#FFFFFF;}
</style>
<g>
	<path class="st0" d="M95.3,304.5c1.3,2,2.3,3.6,3.4,5.1c18.8,27.2,55.7,35.8,84.4,19.6c4.4-2.5,5.8-6,3.8-9.5
		c-2-3.4-5.5-4.2-9.7-1.8c-10.2,5.5-21,7.8-32.5,6.1c-16.5-2.5-29-11-37.8-25.2c12-11.9,12-11.9,20.4-31.6c0.2,0,0.5-0.2,0.7-0.1
		c0.6,0.1,1.2,0.2,1.8,0.3c11.4,3.1,22.8,3.6,34.5,2c34-4.6,63.4-32,70.8-65.5c3.1-14.1,1.9-28.3,2.1-42.5c0-3.6-2.4-5.5-5.8-6.3
		c-18.6-4.1-30.5-15.4-36-33.6c-1.8-6.1-7.6-7.6-11.6-2.6c-11.4,13.9-26.5,20.7-43.8,23.3c-11.8,1.8-23.7,3.1-35.5,5.3
		c-16.8,3.1-29.9,11.4-36.8,27.8c-0.6,1.4-1.1,2.8-1.1,4.3c-1,24.6,6.5,46.1,23.4,64.2c0.6,0.6,1.2,1.3,1.9,1.8
		c2.7,2.2,6,2.1,8.4-0.3c2.5-2.4,2.8-5.5,0.7-8.4c-0.7-0.9-1.5-1.7-2.3-2.5c-11.1-12-17.6-26.2-19.1-42.5c-0.5-5.3-1.3-10.8,2-15.9
		c5.2-8.1,12.5-13.1,21.5-14.9c11.3-2.3,22.9-3.7,34.3-5.4c17.7-2.5,34.3-7.6,47.9-20c0.3-0.3,0.8-0.4,1.2-0.6
		c11,18.2,15.6,22.2,36.2,31.2c0.8,0.3,1.7,1.6,1.7,2.4c0,11.9,0.8,23.9-2.6,35.7c-11.8,41.5-55.4,63.6-96,48.5
		c-6.9-2.6-10.2-0.5-10.8,6.7c-1.4,16.7-10.1,28-25.9,33.7c-10.9,3.9-22,7.4-32.8,11.4c-19,6.9-31.1,20.4-33.1,40.5
		c-1.6,16.4-0.7,33.1-0.7,49.7c0,3.1,2.2,4.9,5.2,5.5c4.2,0.8,7.4-2.2,7.4-7.1c0-14-0.3-28,0.1-41.9c0.4-15.5,7.7-27.2,22-33.2
		C69.6,312.8,82.5,309,95.3,304.5z M281.2,370.5C281.2,370.5,281.2,370.5,281.2,370.5c0-5.9,0.1-11.7,0-17.6
		c-0.2-23.3-12.9-41-34.9-48.7c-10.3-3.6-20.7-7.2-31.1-10.7c-7.8-2.6-14.3-6.8-19.4-13.4c-2.9-3.8-6.5-4.4-9.6-2
		c-3.2,2.5-3.4,5.9-0.4,9.8c6.4,8.4,14.7,14,24.6,17.4c11.5,3.9,23.1,7.7,34.5,12c11,4.2,18.4,12.3,21.7,23.6
		c1.2,4.1,1.6,8.6,1.6,12.9c0.2,12.8,0,25.7,0.2,38.5c0,2.1,0.6,4.9,2,6c1.6,1.3,4.6,1.6,6.8,1.3c3-0.5,3.9-3.3,3.9-6.1
		C281.2,385.9,281.2,378.2,281.2,370.5z M345.5,124.8c6.2,0,12.4,0,18.7,0c4.9,0,7.4-2.3,7.4-6.4c0-4.1-2.5-6.3-7.5-6.3
		c-12.3,0-24.6,0-37,0c-4.9,0-7.5,2.3-7.5,6.3c0,4,2.7,6.4,7.5,6.4C333.3,124.9,339.4,124.8,345.5,124.8z M345.8,160
		c-6.3,0-12.7-0.1-19,0c-4.6,0.1-7.1,2.4-7.1,6.3c0,3.9,2.6,6.4,7.1,6.4c12.6,0.1,25.1,0.1,37.7,0c4.6,0,7.1-2.4,7.1-6.4
		c0-4-2.4-6.3-7-6.4C358.3,159.9,352.1,160,345.8,160z M345.4,220.6c6.2,0,12.4,0,18.7,0c4.9,0,7.4-2.3,7.4-6.4
		c0-4.1-2.5-6.3-7.5-6.3c-12.3,0-24.6,0-37,0c-4.9,0-7.5,2.3-7.5,6.3c0,4,2.7,6.4,7.5,6.4C333.3,220.7,339.3,220.6,345.4,220.6z
		 M151.8,234.3c7.4,0,13.8-2.6,19.2-7.6c3-2.8,3.2-6.6,0.7-9.3c-2.4-2.6-6-2.7-9.1-0.3c-7.9,6.1-13.8,6.1-21.5,0.1
		c-3.2-2.5-7-2.4-9.3,0.4c-2.4,2.8-2,6.4,1,9.3C138.1,231.8,144.4,234.3,151.8,234.3z M178,179.2C178.1,179.2,178.1,179.2,178,179.2
		c0-2,0.2-4,0-6c-0.3-3.6-3.1-5.9-6.6-5.8c-3.3,0.1-5.9,2.4-6.1,5.9c-0.2,3.7-0.2,7.5,0,11.2c0.2,3.4,2.8,5.8,6.1,5.8
		c3.3,0.1,6-2.2,6.4-5.6C178.2,183,178,181.1,178,179.2z M125.6,179C125.5,179,125.5,179,125.6,179c0,1.9-0.2,3.7,0,5.6
		c0.3,3.5,2.3,5.4,5.7,5.8c3.2,0.4,6.2-1.6,6.5-4.8c0.4-4.4,0.4-8.9,0-13.4c-0.3-3.2-3.3-5-6.6-4.7c-3.3,0.3-5.3,2.2-5.6,5.5
		C125.4,175,125.6,177,125.6,179z"/>
	<path d="M405.7,262.7c-1,4.1-1.7,8.2-3,12.3c-7,22.9-27.6,39-51.5,40.1c-5.4,0.2-11-0.2-16.4-0.7c-5.3-0.5-7.7-3.4-7-7.7
		c0.7-4,3.7-5.7,9-4.9c9.3,1.5,18.4,0.8,27.2-2.5c17.8-6.6,28.6-22.3,28.8-42.3c0.2-16.3,0.1-32.7,0.1-49c0-43,0.1-86.1-0.1-129.1
		c0-6.1-0.8-12.5-2.7-18.4c-7.2-22.9-30-32.5-49.9-30.1c-21.5,2.6-36.1,15.1-40.5,34.2c-1.1,4.9-1.4,10.1-1.4,15.2
		c-0.1,51.1-0.2,102.3,0,153.4c0.1,19.8-6.4,36.3-22.2,48.7c-0.3,0.2-0.4,0.6-0.8,1.2c7.1,1.1,13.8,0.1,20.5-1.2
		c1.1-0.2,2.2-0.6,3.3-0.8c4.1-0.9,7.1,0.7,8.1,4.5c1,3.6-0.8,6.7-4.9,7.9c-8.8,2.5-17.9,3.9-27,2.7c-7.2-1-14.3-3-21.5-4.8
		c-3.3-0.8-5.2-3.1-5.1-6.5c0.1-3.4,2.3-5.2,5.5-6.3c20.3-6.5,31.2-21.5,31.2-43.2c0.1-51.6,0-103.3,0-154.9
		c0-9.2,0.7-18.2,4.1-26.8c8.4-20.9,24.5-32,46.2-35.7c1.1-0.2,2.1-0.5,3.2-0.8c4.2,0,8.5,0,12.7,0c1.2,0.3,2.4,0.6,3.6,0.8
		c23.8,4.2,40.4,16.9,47.8,40.5c1.1,3.6,1.7,7.4,2.5,11.2C405.7,133.9,405.7,198.3,405.7,262.7z"/>
	<path d="M179.6,17.2c7.6,1.8,15.5,2.9,22.7,5.7c33.7,12.8,55.3,43.6,55.6,79.9c0.4,40.7,0.1,81.3,0.1,122
		c0,12.5-7.4,22.2-18.8,25.4c-1.1,0.3-2.2,0.5-3.3,0.6c-3.7,0.3-6.2-1.6-6.9-4.9c-0.7-3.5,1-6.3,4.6-7.4c9.1-3,11.6-6.3,11.6-15.8
		c0-39.4,0.1-78.9,0-118.3c-0.1-37.2-24.5-66.6-61-73.4c-3.9-0.7-7.9-1-11.9-1c-13.7-0.1-27.5-0.1-41.2,0
		c-40,0.2-72.6,32.5-72.8,72.6c-0.2,40.5,0,81.1,0,121.6c0,7.8,3.2,11.9,10.8,14c4.2,1.2,6.1,4,5.3,7.7c-0.8,3.8-3.5,5.5-7.9,4.9
		c-11.5-1.6-20.8-12.7-20.9-25.2c-0.1-25.2,0-50.4,0-75.6c0-16.2-0.1-32.4,0-48.7C46.1,59.1,79,22.7,121,17.9
		c0.8-0.1,1.6-0.4,2.5-0.7C142.2,17.2,160.9,17.2,179.6,17.2z"/>
	<path d="M95.3,304.5c-12.8,4.5-25.7,8.4-38.1,13.6c-14.3,6-21.6,17.7-22,33.2c-0.4,14-0.1,27.9-0.1,41.9c0,4.9-3.2,7.9-7.4,7.1
		c-3-0.6-5.2-2.4-5.2-5.5c0-16.6-0.9-33.3,0.7-49.7c2-20.1,14.1-33.6,33.1-40.5c10.9-4,21.9-7.5,32.8-11.4
		c15.8-5.7,24.5-16.9,25.9-33.7c0.6-7.2,3.9-9.2,10.8-6.7c40.7,15,84.3-7,96-48.5c3.3-11.7,2.6-23.7,2.6-35.7c0-0.8-0.9-2-1.7-2.4
		c-20.6-9-25.3-12.9-36.2-31.2c-0.4,0.2-0.9,0.3-1.2,0.6c-13.6,12.4-30.2,17.5-47.9,20c-11.5,1.6-23,3.1-34.3,5.4
		c-9.1,1.8-16.4,6.9-21.5,14.9c-3.3,5.2-2.5,10.6-2,15.9c1.5,16.3,8,30.5,19.1,42.5c0.8,0.8,1.6,1.6,2.3,2.5c2.1,2.9,1.9,6-0.7,8.4
		c-2.4,2.4-5.8,2.5-8.4,0.3c-0.7-0.6-1.3-1.2-1.9-1.8c-17-18.1-24.5-39.6-23.4-64.2c0.1-1.4,0.6-2.9,1.1-4.3
		c6.8-16.4,20-24.7,36.8-27.8c11.8-2.2,23.7-3.4,35.5-5.3c17.3-2.7,32.4-9.5,43.8-23.3c4.1-4.9,9.8-3.5,11.6,2.6
		c5.5,18.2,17.4,29.5,36,33.6c3.4,0.8,5.9,2.7,5.8,6.3c-0.2,14.2,1,28.4-2.1,42.5c-7.3,33.6-36.7,60.9-70.8,65.5
		c-11.6,1.6-23.1,1.1-34.5-2c-0.6-0.2-1.2-0.3-1.8-0.3c-0.2,0-0.5,0.1-0.7,0.1c-8.5,19.7-8.5,19.7-20.4,31.6
		c8.7,14.2,21.2,22.7,37.8,25.2c11.5,1.7,22.3-0.6,32.5-6.1c4.3-2.3,7.8-1.6,9.7,1.8c2,3.5,0.5,7-3.8,9.5
		c-28.7,16.1-65.6,7.6-84.4-19.6C97.6,308.1,96.7,306.5,95.3,304.5z"/>
	<path d="M281.2,370.5c0,7.7,0,15.5,0,23.2c0,2.8-1,5.6-3.9,6.1c-2.2,0.4-5.1,0-6.8-1.3c-1.4-1.1-1.9-3.9-2-6
		c-0.2-12.8,0-25.7-0.2-38.5c-0.1-4.3-0.5-8.8-1.6-12.9c-3.3-11.3-10.6-19.4-21.7-23.6c-11.4-4.3-23-8.1-34.5-12
		c-9.9-3.4-18.3-9-24.6-17.4c-2.9-3.9-2.8-7.3,0.4-9.8c3.1-2.4,6.7-1.8,9.6,2c5,6.5,11.6,10.8,19.4,13.4
		c10.4,3.4,20.7,7.1,31.1,10.7c22,7.7,34.7,25.4,34.9,48.7C281.2,358.8,281.2,364.6,281.2,370.5
		C281.2,370.5,281.2,370.5,281.2,370.5z"/>
	<path d="M345.5,124.8c-6.1,0-12.2,0-18.3,0c-4.8,0-7.5-2.4-7.5-6.4c0-4,2.6-6.3,7.5-6.3c12.3-0.1,24.6,0,37,0
		c4.9,0,7.5,2.2,7.5,6.3c0,4.1-2.6,6.4-7.4,6.4C357.9,124.9,351.7,124.8,345.5,124.8z"/>
	<path d="M345.8,160c6.2,0,12.4-0.1,18.7,0c4.6,0.1,7.1,2.4,7,6.4c0,4-2.5,6.4-7.1,6.4c-12.6,0.1-25.1,0.1-37.7,0
		c-4.5,0-7.1-2.5-7.1-6.4c0-3.9,2.5-6.2,7.1-6.3C333.1,159.9,339.5,160,345.8,160z"/>
	<path d="M345.4,220.6c-6.1,0-12.2,0-18.3,0c-4.8,0-7.5-2.4-7.5-6.4c0-4,2.6-6.3,7.5-6.3c12.3-0.1,24.6,0,37,0
		c4.9,0,7.5,2.2,7.5,6.3c0,4.1-2.6,6.4-7.4,6.4C357.9,220.7,351.7,220.6,345.4,220.6z"/>
	<path d="M151.8,234.3c-7.4-0.1-13.7-2.5-19-7.5c-3.1-2.9-3.4-6.5-1-9.3c2.3-2.7,6.1-2.9,9.3-0.4c7.7,6,13.7,6,21.5-0.1
		c3.1-2.4,6.7-2.3,9.1,0.3c2.5,2.7,2.3,6.5-0.7,9.3C165.6,231.8,159.1,234.3,151.8,234.3z"/>
	<path d="M178,179.2c0,1.9,0.2,3.8,0,5.6c-0.4,3.4-3.1,5.6-6.4,5.6c-3.3-0.1-6-2.4-6.1-5.8c-0.2-3.7-0.2-7.5,0-11.2
		c0.2-3.5,2.7-5.8,6.1-5.9c3.5-0.1,6.2,2.2,6.6,5.8C178.2,175.2,178.1,177.2,178,179.2C178.1,179.2,178.1,179.2,178,179.2z"/>
	<path d="M125.6,179c0-2-0.2-4,0-6c0.4-3.3,2.3-5.1,5.6-5.5c3.3-0.3,6.3,1.5,6.6,4.7c0.4,4.4,0.4,8.9,0,13.4
		c-0.3,3.2-3.4,5.2-6.5,4.8c-3.4-0.4-5.4-2.3-5.7-5.8C125.4,182.7,125.5,180.8,125.6,179C125.5,179,125.5,179,125.6,179z"/>
</g>
</svg>
