<?xml version="1.0" encoding="utf-8"?>
<!-- Generator: Adobe Illustrator 24.3.0, SVG Export Plug-In . SVG Version: 6.00 Build 0)  -->
<svg version="1.1" id="Layer_1" xmlns="http://www.w3.org/2000/svg" xmlns:xlink="http://www.w3.org/1999/xlink" x="0px" y="0px"
	 viewBox="0 0 427.7 416.3" style="enable-background:new 0 0 427.7 416.3;" xml:space="preserve">
<g>
	<path d="M33,399.8c-7.5-3-10.2-8.6-9.8-16.6c0.4-9.6,0-19.2,0.1-28.8c0.1-16.9,9.7-30.8,25.5-37c14.6-5.7,29.2-11.4,43.8-17.1
		c3.8-1.5,5-7.2,2-10.1c-9.3-9.1-12.5-15.1-14.7-28.1c-2.4-0.2-4.8-0.3-7.2-0.6c-8.2-1.3-13.7-6-16.1-13.8c-2.5-8-0.3-15.1,5.9-20.7
		c1.6-1.5,2.3-2.7,2.2-5c-0.1-10.6-0.5-21.2,0.4-31.8c1.3-15.1,14.4-26.7,29.6-26.9c13.2-0.2,26.4-0.1,39.7,0
		c10.5,0.1,16,4.3,19.5,14.2c0.4,1,1.9,2.1,3,2.2c9.9,1,16.4,7.7,16.6,17.8c0.1,7.5-0.1,15,0.1,22.5c0,1.2,1.1,3,2.2,3.5
		c9,4.5,13.8,13.1,11.9,22.3c-1.8,9.2-9.6,15.9-19.5,16c-3.7,0-4.7,1.1-5.3,4.7c-1.5,9.1-6,17-13.1,22.9c-3.3,2.8-2.2,6-2.1,9.2
		c0,0.6,1.8,1.4,2.9,1.8c12.8,5,25.4,10.2,38.3,14.8c10.5,3.8,19.9,8.7,25.5,18.3c4.2-3.9,7.9-8.2,12.4-11.2
		c4.6-3.1,10-4.9,15.4-7.4c-4.3-5.7-6.7-12.3-6.5-19.6c0.3-9.4,2.9-17.3,12-22.1c2.3-1.2,3.9-3.8,6-6.1c-1.6-1-2.4-1.5-3.2-2.1
		c-12-8-12.1-25.1-0.1-33.1c1.9-1.3,2.6-2.6,2.5-4.8c-0.4-9.8,0.2-19.4,3.8-28.7c9-23.2,33.1-38,57-34.8c26.6,3.6,46.3,23.4,48.7,49
		c0.5,5.1,0.2,10.2,0.5,15.3c0.1,1.2,0.6,2.8,1.5,3.4c13.4,8.3,12.4,27.9-1.4,34.8c-0.2,0.1-0.3,0.4-0.9,1.3c1.6,1.7,3,4,5,5.4
		c11.8,8.4,15.3,19.4,10.2,33.2c-1.1,3-2.8,5.8-4.5,9c2.2,0.9,4.5,1.9,6.9,2.7c14.4,5.3,23.1,15.6,26.1,30.6
		c0.1,0.5,0.4,0.9,0.6,1.4c0,13.5,0,26.9,0,40.4c-1.9,4.6-5.1,7.9-9.7,9.7c-25.9,0-51.9,0-77.8,0c-2.3-2-4.5-4.1-3.1-7.6
		c1.4-3.5,4.2-3.7,7.4-3.7c13,0.1,25.9,0,38.9,0c1.3,0,2.7,0,4.3,0c0-2,0-3.4,0-4.9c0-10.7,0-21.4,0-32.2c0-4.2,2.2-6.6,5.5-6.7
		c3.5-0.1,5.6,2.4,5.7,6.8c0,0.9,0,1.7,0,2.6c0,10.1,0,20.2,0,30.3c0,1.3,0.1,2.6,0.2,4.1c4.9,0,9.4-0.1,13.9,0
		c2.8,0.1,3.7-0.9,3.6-3.7c-0.1-10.2,0-20.5-0.1-30.7c-0.1-7.3-2.9-13.5-7.8-18.9c-5.6-6.1-13.4-7.7-20.7-10.7
		c-0.8,1.6-1.4,3-2.1,4.3c-6.2,12.5-15.4,22-27.7,28.4c-1.7,0.9-3.7,1.7-5.6,2c-7,1.1-12.7-1.9-16.1-8.3c-2.4-4.6-4.7-9.2-7.5-14.7
		c-2.7,5.4-4.9,9.8-7.2,14.2c-4.6,8.8-12.8,11.4-21.7,7c-8.7-4.4-16.2-10.4-21.8-18.4c-3.1-4.4-5.7-9.3-8.7-14.3
		c-4.4,1.8-9.3,3.3-13.8,5.8c-7.6,4.2-12.9,10.9-13.5,19.5c-0.9,11.9-0.5,23.9-0.5,35.9c0,0.9,1.5,2.4,2.3,2.5
		c4.9,0.2,9.9,0.1,15.2,0.1c0-1.6,0-2.8,0-4c0-10.5,0-20.9,0-31.4c0-5.7,1.9-8.4,5.7-8.3c3.7,0.1,5.5,2.7,5.5,8.1
		c0,10.3,0,20.7,0,31c0,1.4,0,2.9,0,4.6c1.8,0,3.2,0,4.5,0c13,0,25.9,0,38.9,0c3.2,0,6.1,0.5,7.3,3.9c1.1,3.4-0.8,5.7-3.6,7.4
		C208.7,399.8,120.9,399.8,33,399.8z M103.7,227.1c6.4,0,12.7-0.1,19.1,0c8.2,0.1,14.5-3.1,18.7-10.1c1.6-2.7,4-4.2,7.2-3.4
		c3.1,0.8,4.2,3.2,5,6.3c0.6,2.4,2.3,4.9,4.3,6.4c2.8,2,4.3,0.9,4.3-2.6c0-8.5,0.1-16.9,0-25.4c0-5-2-7-7-7.2
		c-6-0.3-10.1-3.4-11.9-9c-2-6.5-3.3-7.5-10.1-7.5c-12.2,0-24.4,0-36.6,0c-12.3,0-20.7,8.2-20.8,20.6c-0.1,8.5-0.1,16.9,0,25.4
		c0,4.9,1.7,6.5,6.5,6.6C89.5,227.1,96.6,227.1,103.7,227.1z M351.2,228.7c2.6-20.9-4.5-37.9-20.5-47.8c-15.5-9.6-34.9-8.5-49.4,2.7
		c-13.1,10-20.5,30.4-16.5,44.1c8.1,0,16.1,0.3,24-0.1c6.3-0.3,10.6-4.2,12.7-10.1c1.1-3.2,2.5-5.8,6.3-5.8c4-0.1,5.6,2.6,6.7,5.9
		c1.8,5.2,5.4,9.1,10.8,9.8C333.9,228.4,342.6,228.3,351.2,228.7z M102.6,388.4c1.4-12.3,2.8-24.3,4.1-36.3c0.4-3.7-2-7.9-4.4-7.6
		c-4.3,0.4-7.4-1.3-10.2-4.3c-5.8-6.1-11.7-11.9-17.4-18c-1.4-1.5-2.5-1.9-4.5-1.1c-6.1,2.5-12.3,4.7-18.4,7.3
		c-10.2,4.3-16.2,12.3-17,23.1C34,363,34.5,374.5,34.6,386c0,0.9,1.4,2.4,2.3,2.5c5.4,0.2,10.9,0.1,16.8,0.1c0-1.7,0-3,0-4.4
		c0-11.1,0-22.2,0-33.3c0-4.3,1.9-6.6,5.4-6.7c3.6-0.1,5.8,2.3,5.8,6.7c0.1,8.5,0,17,0,25.4c0,4,0,7.9,0,12.1
		C77.6,388.4,89.9,388.4,102.6,388.4z M179,388.5c0-1.6,0-2.8,0-4c0-11,0-21.9,0-32.9c0-4.8,1.9-7.3,5.5-7.3
		c3.7-0.1,5.7,2.5,5.7,7.5c0,7.2,0,14.5,0,21.7c0,4.9,0,9.9,0,15.2c5.9,0,11.3,0.1,16.8-0.1c0.8,0,2.2-1.9,2.2-2.9
		c0.1-11.2,0.4-22.5-0.2-33.7c-0.6-11.2-6.8-19.1-17-23.5c-6.1-2.6-12.2-4.9-18.5-7.1c-1.1-0.4-3.2,0-4,0.9
		c-5.4,5.2-10.6,10.5-15.7,16c-3.9,4.2-7.9,7.8-14.7,5.8c-0.7,3.2-2,6-1.8,8.7c1,11.5,2.5,23,3.8,34.5c0.1,0.4,0.4,0.9,0.6,1.3
		C154,388.5,166.2,388.5,179,388.5z M91.3,238.3c0,7.7-0.3,14.9,0.1,22.1c0.7,15.7,13.1,27.3,29.8,28.4c14.7,0.9,28.9-10,30.9-24.8
		c1.2-8.6,0.6-17.4,0.7-26.1c0-0.7-0.6-1.6-1.2-2.1c-2-1.8-4.1-3.5-6.2-5.2c-11.4,7.2-13.2,7.8-25,7.8c-7.7,0-15.5,0-23.2,0
		C95.2,238.3,93.4,238.3,91.3,238.3z M277.8,239.6c0,7-0.1,13.6,0,20.1c0.2,14.5,10.1,26.3,24.3,29.1c14.4,2.8,28.7-4.9,33.9-18.4
		c3.8-10,1.7-20.3,2.1-30.8c-11.6,0-22.4-0.6-30.1-10.6C300.2,238.9,289.4,239.8,277.8,239.6z M335.5,312.8
		c-3.3-1.6-7.1-2.4-9.4-4.7c-2.3-2.3-3.2-6-4.9-9.4c-8.7,2.7-18,2.6-27.8-0.5c1.5,10.4-6.9,11.7-13.4,14.7
		C293.9,330.4,323.4,330.3,335.5,312.8z M282.1,295.8c0.3-0.2,0.6-0.3,1-0.5c-1.2-1.9-2.1-4.2-3.7-5.7c-5.4-5.4-9.3-11.6-11.4-19
		c-0.3-0.9-1.2-1.6-1.8-2.4c-0.7,0.7-1.8,1.3-2.1,2.1c-2.4,6.1-6.4,10.5-12.2,13.6c-1.1,0.6-2.3,1.6-2.9,2.8
		c-3.6,6-2.1,16.6,2.8,21.7c1.6,1.6,3,2.1,5.2,1.2c7.1-3,14.3-5.8,21.6-8.4C281.4,300.2,282.9,299,282.1,295.8z M332.9,294.8
		c0.8,4.9,0.8,4.9,4.9,6.6c6.8,2.6,13.6,5.4,20.6,7.8c1.3,0.4,3.5,0,4.5-0.9c5.2-4.7,7.1-14.7,4.1-21.1c-0.6-1.3-1.9-2.6-3.2-3.4
		c-5.5-3.1-9.6-7.5-11.9-13.4c-0.3-0.9-1.3-1.5-2-2.2c-0.7,0.8-1.8,1.6-2.1,2.5c-2.2,7.3-6.1,13.5-11.5,18.9
		C334.8,291,334,293.1,332.9,294.8z M259.5,320.7c5.1,12.3,13.2,21.2,24.7,26.9c2.1,1.1,4.3,1.4,5.6-0.8c2.1-3.5,3.7-7.2,5.7-11
		c-10.8-3.1-19.2-8.7-25.6-17.3c-0.5-0.6-2-1-2.8-0.8C264.7,318.4,262.3,319.5,259.5,320.7z M320.7,336.7c1.4,2.8,3,6.1,4.7,9.4
		c1.2,2.3,3.2,2.9,5.4,1.8c11.8-5.9,20.1-15,25.4-27.4c-2.4-0.9-4.5-1.6-6.5-2.6c-2-1-3.2-0.7-4.6,1.2c-2.3,2.9-4.8,5.9-7.8,7.9
		C332,330.6,326.4,333.4,320.7,336.7z M108,297.8c-2.4,5.3-1,9,3.3,12.4c2.9,2.2,4.5,6,7.3,8.2c1.4,1.1,5.1,1.3,6.3,0.3
		c3.9-3.5,7.2-7.7,10.7-11.8c0.7-0.8,1.4-2,1.4-3c-0.1-1.9-0.6-3.9-1-6.1C126.6,300.8,117.2,300.5,108,297.8z M117.7,355.6
		c-1.3,11-2.5,21.8-3.7,32.7c5.4,0,10.5,0,16,0c-1-9-2-17.7-3.1-26.4C125.9,354.7,125.8,354.7,117.7,355.6z M84.3,316
		c5.9,5.4,11.5,10.6,17.9,16.5c1.2-1.4,3.4-3.5,5-6c0.7-1.2,1-3.8,0.2-4.6c-3.5-3.7-6.9-8.2-11.4-10c-2.8-1.1-7.3,2.2-11,3.5
		C85,315.5,84.9,315.6,84.3,316z M142.9,332.5c-0.3-0.3-0.5-0.5-0.8-0.8c5.6-5.3,11.3-10.6,17.1-16c-1.5-0.6-3.1-1.1-4.5-1.9
		c-5.1-3.1-8.6-1.7-12.7,2.4c-8.3,8.3-9.3,7.1,0.6,16.2C142.6,332.5,142.8,332.5,142.9,332.5z M266.3,256.7c0-5.7,0-11.2,0-16.8
		c-4.8-0.5-9.3-0.6-12.1,3.9c-1.9,3-1.9,6.2,0,9.2C257.1,257.4,261.6,257.2,266.3,256.7z M349.5,256.7c5,0.6,9.4,0.6,12.1-4.1
		c1.8-3.2,1.6-6.5-0.6-9.4c-3-3.9-7.1-3.9-11.5-3.2C349.5,245.5,349.5,251,349.5,256.7z M121.9,344.1c4.9,0,8.2-2.7,8.3-7
		c0.1-2.3-5-6.1-8.1-6.1c-3.5,0-8.5,3.6-8.4,6C113.8,341.4,116.9,344.1,121.9,344.1z M164.1,250c5.6,1.7,10.6-0.5,12.3-5.2
		c1.6-4.6-0.6-8.9-4.7-10.5C161.7,236.4,164.1,243.7,164.1,250z M79.8,250.4c0-4.2,0-8,0-11.7c-2.3-0.8-4.6-1.1-6.4-2.4
		c-3.1-2.3-4.5-0.5-5.7,1.9c-1.5,3.2-1.1,6.3,1.1,9.1C71.6,250.7,75.4,250.9,79.8,250.4z"/>
	<path d="M215.2,16.5c26.9,0,53.9,0,80.8,0c21,0,35,13.9,35.2,34.8c0,4.5,0.1,9,0,13.5c-0.1,4.2-2.2,6.5-5.7,6.4
		c-3.3-0.1-5.4-2.3-5.5-6.3c-0.1-4.9,0-9.7-0.1-14.6c-0.3-13.5-9.5-22.6-23.1-22.6c-54.6,0-109.3,0-163.9,0
		c-13.8,0-23,9.1-23.1,22.9c-0.1,19.6-0.1,39.2,0,58.7c0.1,14,9.4,23,23.4,23.1c14,0,27.9,0.1,41.9,0c11.2-0.1,19.7,4.5,25.5,14
		c2.7,4.3,5.5,8.6,8.3,12.9c3.7,5.7,8.2,5.8,11.8,0.1c2.9-4.5,5.8-9,8.7-13.5c5.7-9.1,13.9-13.6,24.7-13.5c14.1,0.1,28.2,0,42.3,0
		c14.3,0,23.4-9.1,23.6-23.3c0.1-5.2,0-10.5,0-15.7c0-4.6,2.2-7.3,5.7-7.3c3.4,0.1,5.5,2.6,5.5,7c0,6.2,0.2,12.5-0.1,18.7
		c-0.9,17.9-15,31.5-32.9,31.7c-14.5,0.2-28.9,0.2-43.4,0c-7.2-0.1-12.4,2.7-16.1,8.8c-2.9,4.8-6,9.5-9.1,14.2
		c-7.5,11.1-21.8,11.2-29.3,0.1c-3.2-4.8-6.3-9.6-9.3-14.5c-3.6-5.8-8.6-8.6-15.5-8.6c-14,0.1-27.9,0.1-41.9,0
		c-20.7,0-34.9-14-35-34.6c-0.1-19.3-0.1-38.7,0-58c0.1-20.6,14.3-34.5,35-34.6C160.8,16.5,188,16.5,215.2,16.5z"/>
	<path d="M214.9,110c-20.7,0-41.4,0-62.1,0c-1.5,0-3.4,0.2-4.3-0.6c-1.6-1.4-3.3-3.5-3.6-5.5c-0.3-2.6,1.7-4.6,4.5-5.1
		c1.2-0.2,2.5-0.1,3.7-0.1c41.2,0,82.3,0,123.5,0c5.7,0,8.5,1.8,8.5,5.6c0,3.8-2.8,5.7-8.4,5.7C256.1,110,235.5,110,214.9,110z"/>
	<path d="M214.9,73.2c20.2,0,40.4,0,60.6,0c0.5,0,1,0,1.5,0c5.4,0,8.1,1.9,8.1,5.6c0,3.7-2.8,5.6-8.1,5.6c-41.4,0-82.8,0-124.2,0
		c-1.5,0-3.4,0.2-4.3-0.6c-1.6-1.4-3.6-3.7-3.5-5.4c0.1-1.8,2.4-3.7,4.2-4.9c1-0.7,2.9-0.3,4.4-0.3C174,73.2,194.5,73.2,214.9,73.2z
		"/>
	<path d="M214.5,58.7c-20.3,0-40.6,0-61,0c-1.4,0-2.8,0-4.1-0.2c-2.9-0.4-4.5-2.3-4.6-5.1c-0.2-2.7,1.2-4.8,4-5.6
		c1.3-0.4,2.7-0.4,4.1-0.4c41.4,0,82.8,0,124.2,0c1.5,0,3.4-0.2,4.3,0.6c1.6,1.4,3.6,3.7,3.4,5.4c-0.1,1.8-2.4,3.7-4.2,4.9
		c-1,0.7-2.9,0.3-4.4,0.3C255.7,58.7,235.1,58.7,214.5,58.7z"/>
</g>
</svg>
