<?xml version="1.0" encoding="utf-8"?>
<!-- Generator: Adobe Illustrator 24.3.0, SVG Export Plug-In . SVG Version: 6.00 Build 0)  -->
<svg version="1.1" id="Layer_1" xmlns="http://www.w3.org/2000/svg" xmlns:xlink="http://www.w3.org/1999/xlink" x="0px" y="0px"
	 viewBox="0 0 427.7 416.3" style="enable-background:new 0 0 427.7 416.3;" xml:space="preserve">
<g>
	<path d="M401.5,180.9c-1.7,2.4-4,3-6.8,3c-21.4-0.1-42.7,0-64.1-0.1c-2.5,0-4.2,0.7-6,2.5c-9.9,10.1-20,20.1-30,30.1
		c-3.8,3.8-5.6,3.7-9.3,0c-10.1-10.1-20.2-20.3-30.4-30.2c-1.3-1.2-3.5-2.1-5.2-2.2c-10.1-0.2-20.2-0.1-30.3-0.1
		c-4.8,0-6.2-1.4-6.2-6.2c0-47,0-93.9,0-140.9c0-4.8,1.4-6.3,6.3-6.3c58.6,0,117.2,0,175.8,0.1c2.1,0,4.2,1.7,6.3,2.5
		C401.5,82.3,401.5,131.6,401.5,180.9z M391.9,174.4c0-45.1,0-89.7,0-134.4c-56.5,0-112.7,0-169.2,0c0,44.8,0,89.4,0,134.4
		c1.4,0,2.5,0,3.7,0c8.6,0,17.3,0.1,25.9-0.1c3-0.1,5.2,0.9,7.3,3.1c9.1,9.2,18.3,18.4,27.5,27.5c0.9,0.9,1.8,1.8,2.9,2.8
		c10.1-10.1,20-19.9,29.7-29.9c2.5-2.5,5.1-3.5,8.6-3.5c16,0.1,31.9,0.1,47.9,0.1C381.4,174.4,386.5,174.4,391.9,174.4z"/>
	<path d="M159.2,252.9c10.7-0.3,20.5,1.1,29.8,4.9c25.2,10.2,41.4,34,41.5,61.2c0.1,19.6,0,39.2,0,58.7c0,5.6-1.4,6.9-7.1,6.9
		c-47.4,0-94.9,0-142.3,0c-13.8,0-27.6,0-41.4,0c-6.1,0-7.3-1.2-7.3-7.4c0-19,0-38,0-56.9c0-37.8,28.7-66.8,66.6-67.4
		c1.4,0,2.8,0,4.8,0c0-4.8,0.1-9.3-0.1-13.8c0-0.9-0.9-1.9-1.7-2.6c-7.6-7.3-12.2-16.2-14.9-26.3c-0.5-1.8-1.4-3.6-2.5-5
		c-6.5-8.5-9.1-17.8-6.3-28.4c0.4-1.5,0-3.3-0.4-4.8c-2.1-7.2-4.3-14.4-2.4-21.9c0.5-2.1,1.4-4.6,2.9-6c6.9-6.6,11.8-14.6,16.2-22.8
		c2.6-4.9,6.2-7.6,11.7-8.9c13.1-3,26.2-5,39.6-2.4c20.1,3.9,32.7,17.6,36.3,38.8c0.7,4.4,1,8.8,1.4,13.2c0.6,5.9,0.8,11.9,1.6,17.8
		c1.3,9.3-1,17.5-6.6,25.1c-1.3,1.8-2.3,3.9-2.9,6c-2.8,9.9-7.3,18.7-14.9,25.9c-0.7,0.7-1.6,1.7-1.6,2.6
		C159.2,243.6,159.2,248,159.2,252.9z M221.1,375c0.1-0.9,0.2-1.5,0.2-2.1c0-18.5,0.1-37-0.1-55.5c0-3.7-0.6-7.4-1.4-11
		c-5.8-27-32.9-46.7-60.4-44c-1.1,0.1-2.4,1.7-2.9,2.8c-5.2,12.5-10.2,25.1-15.2,37.7c-1.8,4.5-3.4,9-5.5,13.3
		c-0.7,1.4-2.8,2.9-4.3,2.9c-1.5,0-3.1-1.7-4.4-2.9c-0.6-0.5-0.7-1.5-1-2.3c-6.5-16.2-13-32.5-19.6-48.7c-0.5-1.2-2.1-2.8-3.3-2.8
		c-34-2-61.4,23.8-61.4,58c0,16.9,0,33.9,0,50.8c0,1.3,0,2.5,0,3.8c9,0,17.6,0,26.2,0c0.1-1,0.2-1.8,0.2-2.5c0-9.4,0-18.7,0-28.1
		c0-2.9,1.3-4.9,4.4-5.1c2.8-0.2,4.7,1.7,4.9,5c0.1,2.9,0.1,5.8,0.1,8.6c0,7.3,0,14.6,0,22.1c36.1,0,71.8,0,107.9,0
		c0-1.5,0-2.8,0-4.2c0-8.3,0-16.6,0-24.9c0-4.6,1.5-6.7,4.6-6.8c3.2-0.1,4.7,2,4.7,6.6c0,7.9,0,15.9,0,23.8c0,1.8,0,3.5,0,5.5
		C203.8,375,212.3,375,221.1,375z M106.9,153c-7.3,6.8-12.9,14.2-17.5,22.4c-3.8,6.7-4,13.8,0.3,19.8c4.3,6,6.8,12.5,8.9,19.4
		c0.3,0.9,0.7,1.8,1.1,2.7c8.9,19.2,29.4,27.3,46.9,18.2c11.8-6,17.6-16.5,20.6-28.9c0.5-1.9,1.2-4,2.4-5.5
		c8.5-10.5,9-18.5,1.9-29.9c-3.3-5.4-7.8-8.1-14.3-7.7c-8.1,0.5-16.3,0.5-24.5,0.8C122.5,164.5,113.4,162.1,106.9,153z M174.4,159.7
		c-0.6-4.3-0.9-7.4-1.4-10.4c-3.6-19.6-16.6-30.6-36.4-31.3c-9.7-0.3-19.2,1-28.4,3.6c-1.7,0.5-3.5,1.9-4.6,3.4
		c-5.2,7.3-9.8,15.1-15.3,22.2c-4,5.2-5.1,9.3-2.3,15.7c0.8-1.1,1.5-2.2,2.4-3.2c5.5-5.9,10.8-11.9,16.6-17.5c3-2.9,6.3-2.1,7.9,1.6
		c3.3,8,9.5,11,17.7,10.8c8.3-0.2,16.6-0.4,24.9-0.7C161.9,153.9,168.2,154.5,174.4,159.7z M131.5,301.9c0.7-1.5,1.2-2.6,1.7-3.7
		c4.9-12.2,9.6-24.5,14.8-36.6c2.4-5.6,1.9-11.1,1.8-17.3c-12.2,5.6-24.3,5.4-36.3,0.2c-0.8,7.4-0.3,14.1,3.1,20.4
		c1.1,2,1.7,4.2,2.5,6.3C123.2,281.3,127.2,291.4,131.5,301.9z"/>
	<path d="M359,107.4c-0.1,28.5-23.5,51.8-52,51.7c-28.5-0.2-51.8-23.6-51.6-52.1c0.2-28.6,23.4-51.6,52-51.6
		C336.1,55.4,359.1,78.7,359,107.4z M349.7,107.2c0-23.4-18.9-42.4-42.2-42.5c-23.5-0.1-42.7,19.1-42.7,42.5
		c0.1,23.3,19.2,42.4,42.5,42.4C330.5,149.7,349.7,130.5,349.7,107.2z"/>
	<path d="M307.3,111.6c9,0,16.6,6.8,17.7,15.7c0.4,3.7-1.1,6.2-3.9,6.6c-2.8,0.5-4.8-1.5-5.4-5.3c-0.7-4.8-3.9-7.7-8.4-7.7
		c-4.3,0-7.5,2.8-8.3,7.4c-0.1,0.6-0.2,1.2-0.3,1.8c-0.6,2.6-2.3,4-4.9,3.8c-2.8-0.3-4.1-2.1-4.2-4.9
		C289.3,119.7,297.5,111.5,307.3,111.6z"/>
	<path d="M287.3,94.9c-1.2-1.1-2.2-2-3.1-2.9c-1.9-2-2.2-4.3-0.3-6.4c1.8-2,4.1-2.2,6.1-0.6c2.8,2.1,5.4,4.4,7.8,6.9
		c2.1,2.2,1.8,4.6-0.4,6.7c-2.2,2.1-4.4,4-6.8,5.9c-2.6,2.1-5.2,1.9-7-0.3c-1.9-2.4-1.3-4.7,0.8-6.7
		C285.4,96.5,286.3,95.8,287.3,94.9z"/>
	<path d="M327.2,94.9c1.2,1.1,3,1.9,3.4,3.2c0.6,1.8,0.9,4.3,0.1,5.8c-1.2,2.2-3.8,2.6-5.9,1c-2.9-2.2-5.6-4.5-8.1-7.1
		c-2-2.1-1.6-4.7,0.5-6.7c2.2-2,4.4-4,6.8-5.9c2.3-1.8,4.7-2,6.7,0.3c2,2.2,1.5,4.7-0.5,6.7C329.3,93.1,328.4,93.9,327.2,94.9z"/>
</g>
</svg>
