<?xml version="1.0" encoding="utf-8"?>
<!-- Generator: Adobe Illustrator 24.3.0, SVG Export Plug-In . SVG Version: 6.00 Build 0)  -->
<svg version="1.1" id="Layer_1" xmlns="http://www.w3.org/2000/svg" xmlns:xlink="http://www.w3.org/1999/xlink" x="0px" y="0px"
	 viewBox="0 0 427.7 416.3" style="enable-background:new 0 0 427.7 416.3;" xml:space="preserve">
<g>
	<path d="M131.6,332.7c-8.2,0-16,0-24.2,0c-0.1,1.3-0.2,2.7-0.2,4c0,15.7,0,31.4,0,47.2c0,1.1,0.1,2.3-0.1,3.4
		c-0.5,2.9-2.3,4.9-5.3,4.7c-3.2-0.1-5-2.1-5-5.3c-0.1-2.6,0-5.2,0-7.9c0-15.2,0-30.4,0-46.3c-4.8,0-9.3,0-13.9,0
		c-8.4,0.1-16.4-1.9-23.5-6.4c-12.7-8.2-20.1-19.9-20.2-35.1c-0.3-34.1-0.2-68.1-0.1-102.2c0-7.3,4.4-13.2,11-15.3
		c7-2.3,14.5-0.1,18.9,5.6c0.6,0.8,1.2,1.6,1.9,2.6c5.8-4.9,12.6-5.9,19.7-5.6c5.6,0.2,11.3,0,16.8,0.7c5.6,0.7,10.2,3.8,13.8,8.3
		c7.3,9.1,14.7,18.3,22.2,27.3c1,1.2,3,2.1,4.6,2.2c7.4,0.2,14.7,0.1,22.1,0.1c13.8,0,21.8,10.4,18.3,23.8c-0.1,0.3-0.1,0.7-0.1,1.4
		c16.9,0,33.8,0,49.9,0c0-3.4-0.4-6.8,0.1-10c1.2-8.7,8.5-15,17.3-15.1c7.9-0.1,15.7-0.1,23.6,0c2.2,0,3.6-0.6,5-2.4
		c7.2-9.1,14.6-18,21.9-27.1c4.5-5.6,10.3-8.6,17.4-8.9c6.2-0.2,12.5-0.6,18.7,0c4.9,0.5,9.7,2.6,15.1,4.2c2.9-4.8,8-8,15-7.9
		c9,0.2,16,6.9,16,15.9c0.1,34.3,0.3,68.6-0.1,102.9c-0.2,22.6-19.4,40.6-42.7,40.9c-4.8,0.1-9.7,0-14.9,0c0,1.8,0,3.2,0,4.5
		c0,16.2,0,32.4,0,48.7c0,4-2,6.4-5.2,6.4c-3.2,0-5.1-2.4-5.2-6.4c0-0.9,0-1.7,0-2.6c0-15.3,0-30.7,0-46c0-1.3,0-2.7,0-4.2
		c-8.2,0-16,0-24.4,0c0,1.6,0,3,0,4.5c0,11.6,0.3,23.2-0.1,34.8c-0.5,16.1-17.3,25.4-30.6,17c-6-3.8-9.4-9.4-9.4-16.5
		c-0.1-27.7-0.1-55.4,0-83.1c0-2.9,1-5.8,1.6-9c-12.5,0-25.3,0-38.3,0c0,1.7,0,3.1,0,4.6c0,32.9,0,65.9,0,98.8
		c0,1.1,0.1,2.3-0.1,3.4c-0.4,3-2.2,4.8-5.3,4.8c-3-0.1-4.8-1.9-5.1-4.9c-0.1-1.1,0-2.2,0-3.4c0-32.9,0-65.9,0-98.8
		c0-1.4,0-2.7,0-4.4c-12.9,0-25.6,0-37.7,0c0.4,5.3,1,10.6,1,15.9c0.1,25.2,0.1,50.4,0,75.6c-0.1,15.8-16.8,25.3-30.2,17.3
		c-6.8-4.1-9.9-10.3-9.9-18.1c0-11.4,0-22.7,0-34.1C131.6,335.7,131.6,334.3,131.6,332.7z M354.9,269.4c0-23.7,0.2-46.9-0.1-70
		c-0.1-7.4-6.2-12.5-13.7-12.7c-5.4-0.2-10.7,0-16.1,0c-4.8,0-8.5,2.1-11.5,5.9c-7.7,9.7-15.6,19.2-23.3,28.8
		c-2.1,2.7-4.5,3.8-8,3.8c-8.5-0.2-17-0.1-25.5,0c-5.1,0-8.5,3.1-8.4,7.5c0.1,4.2,3.4,7.3,8.2,7.4c11.6,0.1,23.2,0,34.8,0
		c3.2,0,5.6-1.2,7.7-3.8c5.5-7.2,11.2-14.3,16.9-21.5c2.6-3.2,5.5-3.8,8.1-1.7c2.5,2,2.6,5,0.1,8.3c-2.7,3.6-5.7,6.9-8.3,10.6
		c-1.2,1.7-2,4-2.1,6.1c-0.2,7.4-0.1,14.7-0.1,22.1c0,3.1,0,6.1,0,9.4C327.6,269.4,341,269.4,354.9,269.4z M113.5,269.4
		c0-7-0.5-13.8,0.1-20.4c1-10.1-1.3-18.6-8.8-25.5c-1.1-1-2.4-2.3-2.6-3.6c-0.3-2-0.5-4.6,0.5-6.1c1.9-3,5.7-2.5,8.5,0.9
		c5.6,7,11.3,14,16.7,21.2c2.3,3,5,4.3,8.6,4.2c11.2-0.1,22.5,0,33.7,0c5.4,0,8.8-3.2,8.7-7.7c-0.1-4.4-3.5-7.2-8.7-7.2
		c-8.4,0-16.7-0.2-25.1,0.1c-3.6,0.1-6.1-1.2-8.3-4c-7.6-9.6-15.5-18.9-23-28.5c-3.1-3.9-6.9-5.9-11.9-6c-4.5,0-9,0-13.5,0
		c-10.8,0-16.3,5.5-16.3,16.4c0,20.7,0,41.4,0,62.1c0,1.3,0,2.7,0,4.2C86,269.4,99.4,269.4,113.5,269.4z M72.1,280.1
		c0,3,0,5.3,0,7.7c0.1,7.8,3.7,11.5,11.4,11.5c16.8,0,33.7,0,50.5,0c6.5,0,8,1.4,8,7.8c0,20.5,0,40.9,0,61.4c0,1.6,0,3.3,0.2,4.9
		c0.6,4.4,4,7.8,8.4,8.2c4.5,0.5,8.7-2.3,10-6.7c0.5-1.6,0.5-3.4,0.5-5.2c0-25.7,0-51.4,0-77.1c0-9.3-3.2-12.5-12.6-12.5
		c-23.9,0-47.9,0-71.8,0C75.3,280.1,74,280.1,72.1,280.1z M355,280.4c-1.4-0.1-2.3-0.3-3.3-0.3c-24.9,0-49.9,0-74.8,0
		c-7.4,0-10.9,3.7-10.9,11.2c0,26.3,0,52.6,0,78.9c0,1,0,2,0.1,3c0.6,4.8,4.8,8.4,9.5,8.3c4.7,0,8.6-3.4,9.3-8.1
		c0.2-1.6,0.2-3.2,0.2-4.8c0-20.3,0-40.7,0-61c0-7.1,1.3-8.4,8.2-8.4c17.1,0,34.2,0,51.3,0c6.4,0,10.2-3.8,10.4-10.2
		C355,286.3,355,283.6,355,280.4z M277.8,269.5c0-6.3,0-12.6,0-18.8c-43,0-85.7,0-128.5,0c0,6.4,0,12.5,0,18.8
		C192.2,269.5,234.9,269.5,277.8,269.5z M131.4,309.7c-1.8,0-3.2,0-4.5,0c-14.2,0-28.4,0-42.7,0c-14.4,0-22.6-8.1-22.6-22.4
		c0-28.7,0-57.4,0-86.1c0-4.2,0.1-8.5-0.1-12.7c-0.1-3.3-2.6-5.3-6-5.3c-3.5,0-5.7,2-6.1,5.3c-0.1,0.9,0,1.7,0,2.6
		c0,32.3,0,64.6,0,96.9c0,20.4,13.6,33.9,34.1,34c14.6,0,29.2,0,43.8,0c1.3,0,2.6-0.1,4.1-0.2C131.4,317.6,131.4,313.9,131.4,309.7z
		 M295.7,321.8c1.1,0.1,2,0.2,2.8,0.2c15.5,0,30.9,0,46.4,0c2.4,0,4.8-0.2,7.1-0.7c15.3-3.4,25.5-16,25.6-32.1
		c0.1-32.9,0-65.9,0-98.8c0-0.6,0-1.3,0-1.9c-0.3-3.2-2.1-5-5.2-5.3c-4.4-0.5-6.9,2-6.9,7.1c0,32.6,0,65.1,0,97.7
		c0,13.4-8.4,21.7-21.7,21.8c-14.6,0-29.2,0-43.8,0c-1.3,0-2.7,0-4.2,0C295.7,313.9,295.7,317.6,295.7,321.8z M138.2,269.4
		c0-6.3,0-12.5,0-18.1c-4.9-1.1-9.4-2.1-14.1-3.1c0,6.9,0,13.9,0,21.2C129,269.4,133.5,269.4,138.2,269.4z M288.8,251.2
		c0,5.8,0,11.9,0,18.2c4.8,0,9.3,0,14,0c0-7.3,0-14.5,0-21.2C298.2,249.2,293.7,250.2,288.8,251.2z"/>
	<path d="M185.2,133.8c-5,4-9.8,7.9-14.6,11.7c-1.1,0.8-2.1,1.8-3.4,2.3c-3.6,1.4-6.9-0.9-7.1-5.2c-0.2-4.8,0-9.7,0-14.9
		c-1.7,0-3.1,0-4.4,0c-10.9-0.2-19.2-8-19.4-19.1c-0.3-13.3-0.1-26.7-0.1-40c0-6.7-0.1-13.5,0-20.2c0.2-12.3,8.2-20.3,20.6-20.3
		c29.6,0,59.1,0,88.7,0c13,0,20.9,7.9,21.2,20.9c0,1.1,0.1,2.2,0.2,3.7c1.7,0,3.1,0,4.6,0c11.4,0.3,19.5,8.1,19.6,19.7
		c0.2,16.8,0.1,33.7,0.1,50.5c0,3.4,0.1,6.7-0.1,10.1c-0.5,11.2-8.5,19-19.7,19.3c-1.2,0-2.5,0-4.2,0c0,4.7,0,9.2,0,13.6
		c0,2.6-0.3,5.1-3,6.3c-2.6,1.2-4.7,0-6.8-1.7c-6.7-5.4-13.3-10.9-20.2-16.1c-1.6-1.2-4-2-6-2.1c-7.3-0.2-14.7-0.1-22.1-0.1
		C194.9,152.4,188.8,147.7,185.2,133.8z M170.5,132.1c5.3-4.3,10-7.8,14.4-11.6c2.8-2.5,5.8-3.3,9.5-3.3c17,0.1,33.9,0.1,50.9,0.1
		c7.2,0,10.7-3.3,10.7-10.4c0.1-19.2,0.1-38.4,0-57.6c0-7.1-3.5-10.6-10.6-10.6c-29.4,0-58.9,0-88.3,0c-7.2,0-10.4,3.3-10.5,10.6
		c-0.1,6,0,12,0,18c0,13.3-0.1,26.7,0,40c0,6.7,3.4,10,9.9,10.1c2.4,0,4.7,0,7.1,0c5.2,0.1,6.8,1.8,6.9,7
		C170.5,126.6,170.5,128.8,170.5,132.1z M256.6,156.7c0-3.4-0.1-6,0-8.5c0.2-4.4,1.9-6.1,6.2-6.2c2.2,0,4.5,0,6.7,0
		c7.7,0,11-3.3,11-10.9c0-19,0-37.9,0-56.9c0-8.7-5.2-12.5-14-10.2c0,1.3,0,2.7,0,4c0,13.1,0.1,26.2,0,39.3
		c-0.1,12.5-8.3,20.5-20.7,20.6c-15.1,0-30.2,0-45.3,0c-1.3,0-2.7,0-3.9,0c-1.4,10.1,1.9,14.1,11.4,14.1c8.9,0,17.7-0.1,26.6,0.1
		c2.2,0.1,4.6,1,6.4,2.2C246,148,250.8,152.1,256.6,156.7z"/>
	<path d="M305.5,145.2c-0.1-16,12.7-28.8,28.6-28.9c15.9-0.1,28.9,12.8,29,28.6c0.1,15.8-12.9,28.9-28.8,28.9
		C318.5,174,305.5,161.1,305.5,145.2z M316,145c0,10.1,8.1,18.4,18.2,18.4c10,0.1,18.4-8.2,18.4-18.3c0.1-10-8.2-18.3-18.3-18.3
		C324.1,126.8,316,134.8,316,145z"/>
	<path d="M121.6,145.1c0,15.9-12.9,28.9-28.8,28.8C77,173.9,64,160.8,64,145.1c0-15.9,13-28.7,28.9-28.7
		C108.8,116.3,121.6,129.1,121.6,145.1z M92.9,126.8c-10.1,0-18.4,8.2-18.4,18.3c0,10,8.3,18.4,18.4,18.4c10.1,0,18.3-8.2,18.3-18.3
		C111.1,134.9,103.1,126.8,92.9,126.8z"/>
	<path d="M201,103.3c-9.4,0-18.7,0-28.1,0c-4.5,0-6.8-1.8-6.8-5.1c0-3.5,2.4-5.4,7-5.4c18.7,0,37.4,0,56.1,0c0.6,0,1.3,0,1.9,0
		c3.2,0.3,5.1,1.9,5.4,5.2c0.2,2.9-2.2,5.2-5.6,5.2C221,103.3,211,103.2,201,103.3C201,103.2,201,103.3,201,103.3z"/>
	<path d="M201.2,72.8c9.1,0,18.2,0,27.3,0c1.1,0,2.3,0,3.4,0.1c2.9,0.4,4.5,2.3,4.6,5c0,2.8-1.6,4.7-4.5,5.1c-1,0.2-2,0.2-3,0.2
		c-18.5,0-36.9,0-55.4,0c-1,0-2,0-3-0.2c-3-0.5-4.7-2.4-4.5-5.4c0.1-2.9,1.9-4.6,4.8-4.8c2.7-0.2,5.5-0.1,8.2-0.1
		C186.5,72.8,193.9,72.8,201.2,72.8z"/>
	<path d="M211.3,63.3c-6.4,0-12.7,0.2-19.1-0.1c-1.8-0.1-4-1.5-5-3.1c-0.8-1.2-0.4-3.9,0.5-5.1c0.9-1.2,3.1-2.1,4.8-2.1
		c12.7-0.2,25.4-0.1,38.1-0.1c3.5,0,5.8,2,5.9,4.9c0.1,3-2.2,5.4-5.8,5.5C224.2,63.4,217.7,63.3,211.3,63.3z"/>
	<path d="M176.4,58c0,2.8-2.4,5.2-5.2,5.2c-2.8,0-5.1-2.4-5.1-5.3c0-2.9,2.2-5.1,5.2-5.1C174.2,52.9,176.5,55.1,176.4,58z"/>
</g>
</svg>
