<?xml version="1.0" encoding="utf-8"?>
<!-- Generator: Adobe Illustrator 24.3.0, SVG Export Plug-In . SVG Version: 6.00 Build 0)  -->
<svg version="1.1" id="Layer_1" xmlns="http://www.w3.org/2000/svg" xmlns:xlink="http://www.w3.org/1999/xlink" x="0px" y="0px"
	 viewBox="0 0 427.7 416.3" style="enable-background:new 0 0 427.7 416.3;" xml:space="preserve">
<g>
	<path d="M406.8,225.6c-0.2,0.7-0.6,1.4-0.7,2.1c-3.3,13-14,21.6-27.4,21.8c-12.7,0.1-25.4,0-38.2,0c-1.4,0-2.7,0-4.4,0
		c0.5,1.7,0.8,3,1.3,4.3c13,37.4,26.1,74.8,39.2,112.2c1.9,5.6,1.3,8.3-2.2,9.5c-3.4,1.2-5.6-0.6-7.6-6.2
		c-13.5-38.8-27.1-77.6-40.6-116.4c-0.9-2.5-1.9-3.5-4.7-3.4c-9.3,0.2-18.6,0.1-28.4,0.1c0,1.8,0,3.3,0,4.8c0,28.7,0,57.4,0,86.1
		c0,1.2,0.1,2.5-0.1,3.7c-0.3,2.9-2.1,4.5-4.9,4.6c-2.7,0.1-4.5-1.4-5.1-4.1c-0.3-1.3-0.3-2.7-0.3-4.1c0-28.7,0-57.4,0-86.1
		c0-1.5,0-3,0-5c-3.8,0-7.3,0-10.9,0c-5.6,0-11.2,0.2-16.8-0.1c-3-0.1-4.3,0.8-5.3,3.6c-13.4,38.8-27,77.6-40.5,116.4
		c-0.5,1.3-0.8,2.6-1.6,3.8c-1.5,2.3-3.7,3-6.2,2c-2.5-1-3.7-3-3.2-5.7c0.3-1.7,1-3.3,1.6-5c13-37.2,25.9-74.3,38.9-111.5
		c0.4-1,0.7-2.1,1.2-3.7c-1.7,0-3,0-4.3,0c-12.4,0-24.7,0-37.1,0c-17.4,0-29.4-11.9-29.5-29.3c-0.1-15.7,0.1-31.4,0.1-47.2
		c0-1.3,0-2.7,0-4.4c-7.1,2.2-13.7,4.4-20.8,6.6c0,1.1,0,2.4,0,3.8c-0.2,62.7-0.3,125.5-0.5,188.2c0,1.4,0.1,2.8-0.1,4.1
		c-0.4,2.8-2.2,4.2-4.8,4.3c-2.6,0.1-4.6-1.3-5.1-4c-0.3-1.3-0.3-2.7-0.3-4.1c0.1-65.1,0.2-130.2,0.4-195.4c0-5.9,1.1-7.2,7.1-7.7
		c11.9-1.1,22.2-6.4,32.2-12.3c17.6-10.3,33.4-22.8,45.1-39.8c3.2-4.5,5.4-9.7,7.7-14.8c1.2-2.6,1-5.4-1.9-7.3
		c-3.5-2.3-7.4-2.7-10.2-0.8c-1.3,0.9-2.4,2.1-3.6,3.3c-9,9.2-17.7,18.7-27.1,27.4c-10.7,9.9-23,17.1-37.9,18.8
		c-2.5,0.3-5,0.4-7.5,0.4c-25.1,0-50.1,0-75.2,0c-8.7,0-16.8,2.3-23.8,7.5c-6,4.4-9.3,10.2-9.2,17.8c0.1,29.4,0,58.9,0.1,88.3
		c0,12.4,9.4,23.1,21.3,24c0-1.5,0-2.9,0-4.4c0-34.2,0-68.4,0-102.5c0-5.8,1.6-8.3,5.3-8.2c3.6,0,5.1,2.4,5.1,8.3
		c0,65.7,0,131.5,0,197.2c0,5.7-1.6,8.3-5.3,8.2c-3.5-0.1-5.1-2.6-5.1-8.1c0-25.1,0-50.1,0-75.2c0-3-0.4-4.4-3.9-5.2
		c-17.1-3.8-27.8-17.5-27.9-35c0-28.2,0-56.4,0-84.6c0-17.2,7.8-29,24.1-34.7c6.7-2.3,14-3,21.2-3.7c6-0.6,12.1-0.1,18.3-0.4
		c-9.5-4.7-16.2-11.9-20.6-21.4c-5.4-11.7-6.8-23.9-4-36.5c3.9-17.3,18.8-27.6,37.6-26.9c25.9,0.9,38,19.8,35.9,43.4
		c-0.5,6.2-2.2,12.6-4.5,18.4c-4,10.2-11,18-22,22.9c1.7,0.2,2.6,0.3,3.5,0.3c10.1,0,20.2,0,30.3,0c8.3,0.1,15.9-2.4,23.2-6.3
		c1.9-1,2.5-2.4,2.5-4.5c-0.1-12.2,0-24.5,0-36.7c0-19.7,11.4-31.2,31.1-31.2c57.5,0,115,0,172.5,0c20.1,0,27.4,5.2,34.1,23.9
		C406.8,124.8,406.8,175.2,406.8,225.6z M179.6,113.6c1.8-1.6,3.1-2.6,4.2-3.7c8-8.2,15.9-16.5,23.9-24.7c1.3-1.3,2.6-2.7,4.1-3.8
		c6.6-4.8,15.2-4.5,22.7,0.7c5.8,4.1,7.8,10.6,5.5,18.7c-2.3,8.2-7,15.1-12.1,21.7c-12.4,16-28.1,28.2-45.3,38.6c-1.4,0.8-3,2.6-3,4
		c-0.2,18.8-0.4,37.7-0.2,56.5c0.1,10.2,7.9,17.5,18.2,17.5c60.3,0,120.5,0.1,180.8,0c10.4,0,17.9-7.6,17.9-18
		c0.1-47.4,0.1-94.8,0-142.2c0-10.4-7.6-17.9-18-17.9c-60.3,0-120.5,0-180.8,0c-9.6,0-17.3,6.2-17.8,15.7
		C179.1,88.6,179.6,100.6,179.6,113.6z M126.1,85c0-19.6-8.3-29.2-24.7-30.7c-13.7-1.2-25.1,5.4-28.2,17.1
		c-3.6,13.5-1.6,26.3,6.4,37.8c10.5,14.9,28.1,14.7,38.6-0.1C123.8,101.4,126,92.5,126.1,85z"/>
	<path d="M95.4,323.9c0-14.6,0-29.2,0-43.8c0-1,0-2,0-3c0.3-2.9,2-4.6,4.8-4.8c2.9-0.2,4.7,1.4,5.3,4.2c0.2,1.1,0.2,2.2,0.2,3.3
		c0,29.4,0,58.8,0,88.3c0,0.4,0,0.7,0,1.1c-0.1,4-2.1,6.4-5.3,6.4c-3.2,0-5.1-2.4-5.1-6.5C95.4,354.1,95.4,339,95.4,323.9z"/>
	<path d="M362.8,153.7c0,18.6,0,37.2,0,55.7c0,5.6-1.6,7.1-7,7.2c-8.5,0-17,0-25.4,0c-4.7,0-6.5-1.8-6.5-6.6c0-37.4,0-74.8,0-112.2
		c0-5,1.8-6.8,6.7-6.8c8.6,0,17.2-0.1,25.8,0c4.7,0,6.5,1.8,6.5,6.6C362.8,116.3,362.8,135,362.8,153.7z M352.1,206.1
		c0-35.1,0-69.8,0-104.5c-6.1,0-11.9,0-17.7,0c0,35,0,69.7,0,104.5C340.4,206.1,346.1,206.1,352.1,206.1z"/>
	<path d="M307.5,170.9c0,12.8,0,25.7,0,38.5c0,5.6-1.6,7.1-7.1,7.1c-8.5,0-17,0-25.4,0c-4.7,0-6.5-1.8-6.5-6.6c0-26.2,0-52.4,0-78.6
		c0-5,1.8-6.8,6.8-6.8c8.5,0,17,0,25.4,0c5.2,0,6.8,1.7,6.9,7C307.5,144.7,307.5,157.8,307.5,170.9z M279,135.2
		c0,23.7,0,47.2,0,70.9c6.1,0,11.9,0,17.9,0c0-23.7,0-47.2,0-70.9C291,135.2,285.2,135.2,279,135.2z"/>
	<path d="M252.2,185.5c0,8,0,15.9,0,23.9c0,5.6-1.6,7.2-7,7.2c-8.5,0-16.9,0-25.4,0c-4.8,0-6.6-1.8-6.6-6.5c0-16.3,0-32.6,0-49
		c0-4.8,1.8-6.6,6.5-6.6c8.7,0,17.4,0,26.2,0c4.6,0,6.3,1.8,6.4,6.3C252.3,169.1,252.2,177.3,252.2,185.5z M241.6,206
		c0-13.9,0-27.4,0-40.9c-6.2,0-12.1,0-17.9,0c0,13.8,0,27.3,0,40.9C229.8,206,235.6,206,241.6,206z"/>
</g>
</svg>
