<?xml version="1.0" encoding="utf-8"?>
<!-- Generator: Adobe Illustrator 24.3.0, SVG Export Plug-In . SVG Version: 6.00 Build 0)  -->
<svg version="1.1" id="Layer_1" xmlns="http://www.w3.org/2000/svg" xmlns:xlink="http://www.w3.org/1999/xlink" x="0px" y="0px"
	 viewBox="0 0 427.7 416.3" style="enable-background:new 0 0 427.7 416.3;" xml:space="preserve">
<g>
	<path d="M113.2,194.9c-1.5,0-2.8,0-4.2,0c-17.7,0-35.4,0-53.2,0c-12.2,0-19.6-7.4-19.6-19.6c0-40.9,0-81.8,0-122.8
		c0-11.9,7.5-19.4,19.4-19.4c57,0,114.1,0,171.1,0c11.7,0,19.2,7.5,19.2,19.2c0,5.5,0,10.9,0,16.7c1.8,0,3.3,0,4.7,0
		c41.6,0,83.1,0,124.7,0c13.3,0,20.4,7.1,20.4,20.3c0,40.4,0,80.8,0,121.3c0,13-7.2,20.2-20.1,20.2c-23.5,0-46.9,0-70.4,0
		c-1.4,0-2.7,0-4.4,0c1.6,11.2,3.1,22,4.7,32.8c0.5,3.3,0.6,6.3-2.7,8.2c-3.3,1.9-5.9,0.4-8.4-1.9c-14.1-12.4-28.1-24.7-42.3-36.9
		c-1.5-1.3-3.9-2.2-5.9-2.2c-13.6-0.2-27.2-0.1-40.8-0.1c-11.9,0-19.3-7.5-19.4-19.4c0-5.3,0-10.7,0-16.5c-7,0-13.9-0.1-20.7,0.1
		c-1.1,0-2.3,1.4-3.2,2.3c-14.2,14.2-28.4,28.4-42.6,42.6c-2.2,2.2-4.4,3.7-7.6,2.4c-3.3-1.4-4.1-4.1-3.6-7.4
		c1.6-12.6,3.2-25.2,4.8-37.8C113.2,196.4,113.2,195.8,113.2,194.9z M122.3,220c1.6-1.5,2.5-2.4,3.4-3.2
		c10.1-10.1,20.3-20.2,30.4-30.5c2.4-2.4,4.8-3.5,8.2-3.5c20.6,0.1,41.2,0.1,61.8,0.1c5.9,0,7.9-2,7.9-7.9c0-40.7,0-81.3,0-122
		c0-5.9-2-7.9-7.8-7.9c-56.6,0-113.3,0-169.9,0c-6.1,0-8,2-8,8.1c0,40.5,0,81.1,0,121.6c0,6.1,1.9,8,8.1,8c20.5,0,40.9,0,61.4,0
		c7,0,9,2.4,8,9.5C124.5,201.3,123.5,210.2,122.3,220z M198.3,194.9c-0.2,0.8-0.3,1-0.3,1.3c0,4.9,0,9.7,0,14.6c0,6.1,1.9,8.1,8,8.1
		c14.6,0,29.2-0.1,43.8,0.1c2.6,0,5.6,1.2,7.6,2.9c10.3,8.7,20.4,17.6,30.5,26.5c1,0.9,2.1,1.7,3.6,2.9c-1.2-8.2-2.2-15.7-3.3-23.2
		c-1-6.8,1-9.3,7.9-9.3c26.5,0,52.9,0,79.4,0c6.3,0,8.2-1.9,8.2-8.3c0-40.4,0-80.9,0-121.3c0-6.3-1.9-8.2-8.3-8.2
		c-41.9,0-83.9,0-125.8,0c-1.2,0-2.4,0-3.7,0c0,1.9,0,3.3,0,4.6c0,29.7,0,59.4,0,89.1c0,12.9-7.2,20.1-20.2,20.1
		C216.6,194.9,207.5,194.9,198.3,194.9z"/>
	<path d="M123.7,326.3c2.8,0.3,5.7,0.5,8.4,1c13.2,2.5,23.5,14.1,23.8,27.6c0.3,12.3,0.1,24.7,0.1,37.3c-3.9,0-7.6,0-11.9,0
		c0-1.2,0-2.6,0-3.9c0-10.4,0-20.7,0-31.1c-0.1-11-7.7-18.6-18.6-18.6c-19.6-0.1-39.2-0.1-58.8,0c-10.7,0-18.4,7.7-18.4,18.4
		c-0.1,10.5,0,21,0,31.4c0,1.2,0,2.4,0,3.8c-4.1,0-7.7,0-12,0c0-1.3,0-2.6,0-3.9c0-10,0-20,0-29.9c0-18.8,12.1-31.3,30.8-31.8
		c0.5,0,1-0.1,2-0.2c-7.6-9.9-10.7-20.6-7.7-32.7c2.1-8.3,6.7-15,13.6-20c13.7-10,32.3-9.2,44.9,2
		C134.3,288.5,135.6,305.2,123.7,326.3z M96,326.6c13.2,0.1,24.1-10.7,24.1-23.9c0-13.1-10.6-23.8-23.6-24
		c-13.3-0.1-24.2,10.5-24.3,23.7C72.1,315.7,82.8,326.6,96,326.6z"/>
	<path d="M287.9,392.4c-4.1,0-7.8,0-12,0c0-1.3,0-2.6,0-4c0-10,0-20,0-29.9c0-18.8,12.1-31.3,30.8-31.8c0.5,0,1-0.1,2-0.2
		c-7.6-9.9-10.7-20.6-7.7-32.7c2.1-8.2,6.5-14.8,13.3-19.8c13.8-10.3,32.5-9.5,45.2,1.7c14.4,12.8,15.7,29.5,3.8,50.6
		c2.8,0.3,5.7,0.5,8.4,1c13.2,2.5,23.5,14.1,23.8,27.6c0.3,12.3,0.1,24.7,0.1,37.3c-3.9,0-7.6,0-11.9,0c0-1.2,0-2.6,0-3.9
		c0-10.4,0-20.7,0-31.1c-0.1-11-7.7-18.6-18.6-18.6c-19.6-0.1-39.2-0.1-58.8,0c-10.7,0-18.4,7.7-18.4,18.4c-0.1,10.5,0,21,0,31.4
		C287.9,389.8,287.9,391,287.9,392.4z M335.9,278.7c-13.2,0-24,10.8-24,24c0,13.1,10.7,23.8,23.7,23.9c13.2,0.1,24.1-10.6,24.2-23.8
		C359.8,289.6,349.1,278.8,335.9,278.7z"/>
	<path d="M71.9,392.4c-3.9,0-7.6,0-11.5,0c0-11.8,0-23.5,0-35.5c3.7,0,7.5,0,11.5,0C71.9,368.5,71.9,380.3,71.9,392.4z"/>
	<path d="M132,356.8c0,11.9,0,23.6,0,35.5c-3.8,0-7.6,0-11.6,0c0-11.8,0-23.5,0-35.5C124.2,356.8,127.8,356.8,132,356.8z"/>
	<path d="M300.1,356.8c3.9,0,7.6,0,11.5,0c0,11.9,0,23.7,0,35.6c-3.9,0-7.5,0-11.5,0C300.1,380.6,300.1,368.8,300.1,356.8z"/>
	<path d="M371.5,392.4c-4,0-7.6,0-11.5,0c0-11.8,0-23.5,0-35.5c3.7,0,7.5,0,11.5,0C371.5,368.6,371.5,380.3,371.5,392.4z"/>
	<path d="M162.1,99c6,0,11.4,0,16.9,0c4.9,0,7,2.2,7.1,7.1c0,7.2,0.1,14.5,0,21.7c0,4.9-2.2,7-7.1,7.1c-5.5,0.1-10.9,0-16.8,0
		c0,5.6,0,10.9,0,16.2c0,5.6-2,7.7-7.6,7.7c-7,0-14,0-21,0c-5.2,0-7.3-2.1-7.3-7.2c0-5.5,0-10.9,0-16.7c-5.7,0-11,0-16.4,0
		c-5.6,0-7.6-2.1-7.6-7.7c0-7,0-14,0-21c0-5.1,2.2-7.2,7.3-7.2c5.4,0,10.7,0,16.6,0c0-5.5,0-10.8,0-16.1c0-5.9,2-7.9,7.8-7.9
		c6.9,0,13.7,0,20.6,0c5.4,0,7.5,2.1,7.5,7.4C162.1,87.8,162.1,93.2,162.1,99z M138.1,146.7c4.3,0,8,0,12,0c0-3.8,0-7.2,0-10.7
		c0-12.9,0.1-13,12.8-13c3.7,0,7.4,0,10.9,0c0-4.3,0-8,0-12c-3.9,0-7.6,0-11.3,0c-12.1,0-12.4-0.3-12.4-12.3c0-3.8,0-7.6,0-11.7
		c-2.3,0-4.2,0-6,0c-1.9,0-3.9,0-6,0c0,4,0,7.5,0,11c0,12.9-0.1,13-12.8,13c-3.7,0-7.4,0-10.9,0c0,4.3,0,8,0,12c5.4,0,10.6,0,15.8,0
		c5.9,0,7.9,2,7.9,7.8C138.1,136,138.1,141.2,138.1,146.7z"/>
	<path d="M305.6,164.9c-11.4,0-22.7,0-34.1,0c-5.6,0-7.6-2-7.7-7.7c0-7,0-14,0-21c0-5.1,2.1-7.3,7.3-7.3c23.1,0,46.2,0,69.3,0
		c5.1,0,7.3,2.2,7.3,7.3c0,7.1,0,14.2,0,21.3c0,5.1-2.2,7.3-7.3,7.3C328.9,165,317.3,164.9,305.6,164.9z M276.1,152.7
		c20.1,0,39.8,0,59.4,0c0-4.1,0-7.8,0-11.5c-20,0-39.6,0-59.4,0C276.1,145.1,276.1,148.7,276.1,152.7z"/>
</g>
</svg>
