<svg width="428" height="417" viewBox="0 0 428 417" fill="none" xmlns="http://www.w3.org/2000/svg">
<path d="M285.7 388.3C274.7 388.6 262 383.9 249.5 378.8C146 336.9 75.4998 263.4 38.0998 158.3C30.1998 136.1 32.5998 114.4 44.5998 94.0999C53.8998 78.3999 63.5998 62.9999 73.4998 47.6999C88.2998 24.8999 119.7 21.2999 139.2 40.1999C151 51.4999 162.5 62.9999 173.8 74.6999C193.8 95.3999 193.8 127.9 173.9 149C168.8 154.4 163.6 159.5 158.3 164.7C156.7 166.2 156.3 167.5 157.1 169.6C174.4 215.9 206.1 247.7 252.4 264.9C254.4 265.7 255.8 265.4 257.3 263.8C262.3 258.6 267.5 253.4 272.7 248.4C293.9 228 326.8 228.1 347.8 248.7C359 259.6 370 270.7 381 281.8C401 302.1 397.6 333.7 373.6 349.1C358.6 358.7 343.4 368.1 328.1 377.5C316 384.8 302.7 388.3 285.7 388.3ZM288.8 364.2C298.9 364.1 308.3 361.4 316.8 356.1C331.1 347.2 345.4 338.3 359.7 329.3C371.7 321.7 373.2 308.2 363.3 298.2C353 287.8 342.7 277.5 332.3 267.2C319.3 254.3 300.8 254.3 287.8 267.2C281.2 273.7 274.7 280.2 268.2 286.9C264 291.2 259.3 292.5 253.5 290.6C191.8 270.8 151.1 230.1 131.4 168.3C129.6 162.5 130.9 157.9 135.2 153.7C141.9 147.2 148.5 140.5 155.1 133.8C167.9 120.8 168 103 155.2 89.9999C144.7 79.2999 134 68.6999 123.4 58.1999C113.9 48.7999 100.2 50.3999 92.9998 61.6999C83.8998 76.1999 74.7998 90.6999 65.7998 105.3C56.9998 119.7 55.0998 135.1 60.8998 151C97.1998 252 165.5 321.4 265.9 359.3C273.3 362.1 280.8 364.3 288.8 364.2Z" fill="black"/>
<path d="M393.8 180.2C393.8 181.1 393.8 181.9 393.8 182.8C393.8 190.4 389 195.9 382 196.1C375.1 196.2 369.9 190.9 369.8 183.3C369.6 171.1 368.3 159.1 364.5 147.5C348 96.4999 313.6 65.1999 261 54.2999C253.8 52.7999 246.4 52.4999 239.1 52.0999C231.1 51.6999 225.7 46.9999 225.8 39.8999C225.8 32.6999 231.4 27.8999 239.6 27.9999C315 28.8999 379.3 84.0999 391.6 158.5C392.8 165.6 393.3 172.9 394.1 180.1C394.1 180.2 393.9 180.2 393.8 180.2Z" fill="black"/>
<path d="M333.9 181.5C333.8 183.2 333.8 185 333.5 186.7C332.2 192.6 326.7 196.6 320.8 196.1C314.6 195.6 310 190.5 309.9 183.9C309.7 169.1 305.7 155.5 297.2 143.5C283 123.4 263.5 112.9 238.8 112.1C231.1 111.9 225.8 107 225.8 100C225.8 92.9 231.3 87.8 239.2 88.1C244.5 88.3 249.9 88.8 255.2 89.7C299.1 97.2 333 137 333.9 181.5Z" fill="black"/>
<path d="M239.1 148.2C257.7 148.7 273.3 164.3 273.8 182.9C274 190.3 269.2 195.8 262.5 196.2C255.7 196.5 250.4 191.5 249.9 184.2C249.4 177.2 245 172.7 237.9 172.2C230.6 171.7 225.5 166.4 225.9 159.6C226.2 152.7 231.7 148 239.1 148.2Z" fill="black"/>
</svg>
