<?xml version="1.0" standalone="no"?>
<!DOCTYPE svg PUBLIC "-//W3C//DTD SVG 20010904//EN"
 "http://www.w3.org/TR/2001/REC-SVG-20010904/DTD/svg10.dtd">
<svg version="1.0" xmlns="http://www.w3.org/2000/svg"
 width="512.000000pt" height="512.000000pt" viewBox="0 0 512.000000 512.000000"
 preserveAspectRatio="xMidYMid meet">

<g transform="translate(0.000000,512.000000) scale(0.100000,-0.100000)"
fill="#000000" stroke="none">
<path d="M1043 4945 c-89 -19 -186 -71 -259 -138 -54 -49 -97 -111 -280 -405
-120 -191 -233 -380 -252 -421 -79 -172 -109 -392 -78 -581 50 -296 330 -905
606 -1315 352 -523 829 -994 1357 -1339 325 -212 717 -404 1068 -523 237 -80
464 -83 680 -10 107 37 154 63 504 281 338 209 421 273 482 367 106 166 117
383 27 568 -28 57 -70 104 -313 349 -178 181 -304 300 -347 328 -179 120 -417
151 -623 82 -119 -39 -182 -84 -346 -244 l-155 -153 -70 25 c-167 60 -376 175
-532 291 -95 71 -274 244 -354 340 -131 160 -243 351 -324 553 l-43 105 123
125 c67 69 138 145 158 170 154 193 195 454 108 692 -48 132 -97 192 -402 493
-252 250 -291 284 -352 314 -122 58 -254 74 -383 46z m249 -338 c24 -14 156
-140 295 -279 207 -209 257 -264 278 -310 52 -114 52 -232 0 -346 -21 -45 -63
-94 -204 -237 -99 -99 -186 -194 -195 -212 -23 -45 -20 -80 14 -188 214 -667
711 -1210 1352 -1479 133 -56 289 -106 329 -106 53 0 90 28 269 204 96 95 191
182 210 193 103 62 254 69 370 18 58 -26 92 -56 318 -279 140 -138 266 -271
280 -296 23 -38 27 -57 27 -120 0 -63 -4 -82 -27 -120 -14 -25 -37 -55 -50
-66 -32 -30 -609 -390 -688 -429 -134 -68 -295 -90 -439 -61 -142 29 -492 169
-717 287 -431 225 -744 453 -1088 789 -374 367 -663 766 -891 1235 -76 157
-188 430 -224 550 -50 161 -35 351 38 500 22 44 126 219 233 389 198 317 227
353 304 382 58 21 153 13 206 -19z"/>
<path d="M2815 4946 c-94 -41 -124 -168 -58 -247 36 -42 80 -59 155 -59 299 0
657 -111 925 -285 247 -160 463 -398 597 -656 129 -246 184 -452 204 -757 9
-131 17 -153 76 -196 39 -29 133 -29 172 0 73 54 84 105 64 315 -67 731 -500
1361 -1155 1684 -217 107 -435 171 -683 200 -155 18 -257 19 -297 1z"/>
<path d="M2815 4147 c-97 -45 -124 -172 -54 -252 37 -41 68 -52 184 -59 238
-15 445 -112 620 -290 170 -174 254 -363 274 -622 8 -112 19 -136 75 -178 39
-29 133 -29 172 0 75 55 87 123 59 315 -40 279 -160 517 -364 720 -231 232
-511 358 -826 374 -83 4 -118 2 -140 -8z"/>
<path d="M2815 3346 c-67 -29 -105 -106 -90 -183 9 -50 69 -109 118 -117 20
-3 54 -9 74 -12 50 -8 109 -67 117 -117 3 -20 9 -54 12 -74 8 -49 67 -109 117
-118 109 -21 197 54 197 168 0 153 -109 331 -249 406 -105 56 -230 76 -296 47z"/>
</g>
</svg>
