<svg width="428" height="417" viewBox="0 0 428 417" fill="none" xmlns="http://www.w3.org/2000/svg">
<path d="M405.5 109.3C405.5 175.2 405.5 241 405.5 306.9C405.3 307.5 405 308 404.9 308.6C400.5 333.9 380.2 351.5 354.5 351.6C260.7 351.7 166.9 351.7 73.0999 351.6C44.3999 351.6 22.3 329.1 22.2 300.4C22.2 238.9 22.2 177.4 22.2 115.9C22.2 112.2 22.4999 108.4 23.2999 104.8C28.6999 80.7 48.9999 64.6 74.1999 64.6C127.3 64.6 180.5 64.6 233.6 64.6C273.8 64.6 313.9 64.5 354.1 64.6C377.7 64.6 397.4 79.5 403.6 101.7C404.3 104.3 404.9 106.8 405.5 109.3ZM50.9 104.8C52 105.7 53 106.4 53.9 107.2C101.4 151.9 149 196.6 196.5 241.3C207 251.1 220.9 251 231.4 241.1C279 196.3 326.6 151.5 374.3 106.8C376.5 104.7 376.3 103.4 374.7 101.2C369.2 93.8 361.7 90.8 352.7 90.8C260.1 90.8 167.6 90.8 75 90.8C73.8 90.8 72.5 90.8 71.3 90.9C62.2 91.8 55.5 96.2 50.9 104.8ZM147.9 231.6C116.9 260.7 86.4 289.5 55.7999 318.3C61.4999 323.9 68.1 325.5 75.4 325.5C167.8 325.5 260.2 325.5 352.6 325.5C354.8 325.5 357.1 325.4 359.3 325C364.2 324.2 368.4 322.1 372 318.3C341.2 289.3 310.6 260.6 280 231.8C278.7 232.9 277.8 233.7 276.9 234.6C267 243.9 257.4 253.6 247.1 262.4C231.1 275.9 212.9 278.8 193.7 270.4C187.3 267.6 181.5 262.8 176.1 258.1C166.5 249.5 157.4 240.6 147.9 231.6ZM48.7999 138.4C48.7999 188.8 48.7999 238.5 48.7999 288.8C75.6999 263.5 102.1 238.7 128.8 213.6C102.1 188.5 75.5999 163.7 48.7999 138.4ZM379.1 288.9C379.1 238.5 379.1 188.8 379.1 138.3C352.1 163.7 325.7 188.5 299 213.6C325.7 238.7 352.1 263.5 379.1 288.9Z" fill="black"/>
</svg>
