<svg width="428" height="417" viewBox="0 0 428 417" fill="none" xmlns="http://www.w3.org/2000/svg">
<path d="M221.1 15.3C224.9 15.8 228.8 16.2 232.6 16.8C279.1 24.3 313.8 48.7 334.6 90.7C356.5 134.9 354.1 179.1 329.1 221.5C295.2 278.9 260.7 336 226.4 393.2C220.3 403.3 210.8 403.5 204.6 393.5C169.4 336.8 134.3 280.1 99.1001 223.5C82.5001 196.8 75.4001 167.8 78.9001 136.5C82.6001 103.1 96.9001 74.7 121.5 51.7C139.6 34.8 160.8 23.7 185 18.4C191.9 16.9 199.1 16.3 206.1 15.2C211.1 15.3 216.1 15.3 221.1 15.3ZM215.3 367.8C216.3 366.2 217.1 364.9 217.9 363.6C248.3 312.8 278.7 262.1 309.1 211.3C328.7 178.6 332.3 144.4 318.3 108.9C306.6 79.4 285.6 58.2999 256.2 46.2999C224.4 33.4 192.6 34.7 162 50.4C133.7 64.9 114.6 87.7 105.5 118.1C95.6001 151 100.2 182.3 118.4 211.6C150 262.5 181.6 313.5 213.2 364.4C213.8 365.5 214.5 366.5 215.3 367.8Z" fill="black"/>
<path d="M209.3 218.3C171.9 218.4 141.5 188 141.4 150.6C141.3 113.4 171.8 82.8 209.1 82.7C246.4 82.6 276.9 113.1 277 150.4C277 187.8 246.7 218.2 209.3 218.3ZM209 195.8C234 195.9 254.3 175.8 254.4 150.8C254.5 125.8 234.4 105.4 209.5 105.2C184.4 105 163.9 125.3 163.9 150.4C163.9 175.5 184 195.7 209 195.8Z" fill="black"/>
</svg>
