<?xml version="1.0" standalone="no"?>
<!DOCTYPE svg PUBLIC "-//W3C//DTD SVG 20010904//EN"
 "http://www.w3.org/TR/2001/REC-SVG-20010904/DTD/svg10.dtd">
<svg version="1.0" xmlns="http://www.w3.org/2000/svg"
 width="512.000000pt" height="512.000000pt" viewBox="0 0 512.000000 512.000000"
 preserveAspectRatio="xMidYMid meet">

<g transform="translate(0.000000,512.000000) scale(0.100000,-0.100000)"
fill="#000000" stroke="none">
<path d="M582 4470 c-222 -33 -415 -174 -512 -375 -73 -151 -70 -83 -70 -1535
0 -1452 -3 -1384 70 -1535 85 -177 252 -313 443 -362 69 -17 159 -18 2052 -18
1889 0 1983 1 2045 18 231 65 401 227 478 452 l27 80 0 1365 0 1365 -27 80
c-76 223 -242 382 -473 451 -57 18 -161 19 -2020 20 -1078 1 -1984 -2 -2013
-6z m3988 -371 c31 -14 72 -40 91 -57 34 -30 78 -97 69 -105 -3 -2 -421 -395
-930 -873 -509 -478 -955 -896 -991 -930 -94 -87 -143 -108 -249 -108 -69 0
-94 4 -134 24 -57 28 25 -48 -1116 1024 -503 473 -917 861 -920 863 -2 2 4 20
15 39 35 66 124 127 208 144 23 4 910 7 1972 6 l1930 -1 55 -26z m-3656 -1134
l508 -478 -43 -42 c-24 -23 -237 -224 -474 -445 -236 -222 -458 -430 -492
-464 l-63 -60 0 1009 0 1009 28 -26 c15 -13 256 -240 536 -503z m3854 -978
l-3 -504 -520 489 c-286 269 -526 495 -533 502 -12 11 74 96 520 515 l533 502
3 -500 c1 -275 1 -726 0 -1004z m-2850 35 c248 -234 305 -275 437 -319 69 -23
96 -27 205 -27 109 0 136 4 205 27 149 49 174 70 642 510 32 30 32 30 56 11
34 -26 1201 -1126 1205 -1136 4 -10 -81 -64 -127 -80 -29 -10 -429 -13 -1981
-13 -1552 0 -1952 3 -1981 13 -46 16 -131 70 -127 80 5 12 1219 1152 1227
1152 4 0 111 -98 239 -218z"/>
</g>
</svg>
